<?xml version="1.0" encoding="UTF-8"?>
<!DOCTYPE svg PUBLIC "-//W3C//DTD SVG 1.1//EN" "http://www.w3.org/Graphics/SVG/1.1/DTD/svg11.dtd">
<svg xmlns="http://www.w3.org/2000/svg" version="1.1" width="64px" height="64px" style="shape-rendering:geometricPrecision; text-rendering:geometricPrecision; image-rendering:optimizeQuality; fill-rule:evenodd; clip-rule:evenodd" xmlns:xlink="http://www.w3.org/1999/xlink">
<g><path style="opacity:0.909" fill="#e87d0f" d="M 32.5,6.5 C 40.2879,11.7812 47.9546,17.2812 55.5,23C 63.1714,32.8336 62.8381,42.1669 54.5,51C 46.2216,56.1496 37.5549,56.8163 28.5,53C 22.8712,49.3654 19.7046,44.1987 19,37.5C 15.1667,40.6667 11.3333,43.8333 7.5,47C 1.92017,48.261 0.0868319,46.0943 2,40.5C 9.25677,35.1211 16.4234,29.6211 23.5,24C 18.7982,23.8283 14.1315,23.3283 9.5,22.5C 8.53964,21.1877 8.70631,19.8544 10,18.5C 18.4217,17.682 26.9217,17.182 35.5,17C 33.1251,14.8241 30.7918,12.6574 28.5,10.5C 29.3681,8.60296 30.7014,7.26963 32.5,6.5 Z"/></g>
<g><path style="opacity:1" fill="#fbf6f2" d="M 37.5,23.5 C 44.6095,23.3003 49.7761,26.3003 53,32.5C 52.7042,43.1164 47.2042,47.6164 36.5,46C 28.2377,42.3246 26.071,36.4913 30,28.5C 32.4256,26.5476 34.9256,24.881 37.5,23.5 Z"/></g>
<g><path style="opacity:1" fill="#305d8b" d="M 37.5,27.5 C 45.2121,26.715 48.7121,30.0483 48,37.5C 43,42.8333 38,42.8333 33,37.5C 31.5713,32.7833 33.0713,29.45 37.5,27.5 Z"/></g>
</svg>
