<?xml version="1.0" encoding="UTF-8"?>
<!DOCTYPE svg PUBLIC "-//W3C//DTD SVG 1.1//EN" "http://www.w3.org/Graphics/SVG/1.1/DTD/svg11.dtd">
<svg xmlns="http://www.w3.org/2000/svg" version="1.1" width="512px" height="512px" style="shape-rendering:geometricPrecision; text-rendering:geometricPrecision; image-rendering:optimizeQuality; fill-rule:evenodd; clip-rule:evenodd" xmlns:xlink="http://www.w3.org/1999/xlink">
<g><path style="opacity:0.983" fill="#010101" d="M 104.5,-0.5 C 239.167,-0.5 373.833,-0.5 508.5,-0.5C 508.5,134.167 508.5,268.833 508.5,403.5C 482.5,403.5 456.5,403.5 430.5,403.5C 430.5,400.833 430.5,398.167 430.5,395.5C 431.468,393.393 431.802,391.059 431.5,388.5C 452.167,388.5 472.833,388.5 493.5,388.5C 493.5,328.5 493.5,268.5 493.5,208.5C 470.167,208.5 446.833,208.5 423.5,208.5C 428.979,201.209 433.146,193.209 436,184.5C 438.128,170.262 433.295,159.095 421.5,151C 414.185,146.59 406.519,145.09 398.5,146.5C 385.505,148.756 376.672,156.09 372,168.5C 369.006,180.851 371.506,191.851 379.5,201.5C 380.833,203.833 382.167,206.167 383.5,208.5C 360.5,208.5 337.5,208.5 314.5,208.5C 314.333,223.17 314.5,237.837 315,252.5C 321.007,250.793 327.174,250.126 333.5,250.5C 341.732,251.577 349.399,254.244 356.5,258.5C 376.134,274.02 381.634,293.687 373,317.5C 369.148,325.186 363.981,331.852 357.5,337.5C 350.419,341.75 342.752,344.416 334.5,345.5C 328.455,345.697 322.455,345.363 316.5,344.5C 315.791,343.596 314.791,343.263 313.5,343.5C 313.171,358.343 313.504,373.01 314.5,387.5C 347.996,388.498 381.663,388.832 415.5,388.5C 415.198,391.059 415.532,393.393 416.5,395.5C 416.5,398.167 416.5,400.833 416.5,403.5C 377.167,403.5 337.833,403.5 298.5,403.5C 298.167,374.826 298.5,346.159 299.5,317.5C 305.8,321.965 312.466,325.799 319.5,329C 343.608,332.778 357.608,322.611 361.5,298.5C 358.193,274.513 344.526,264.013 320.5,267C 312.89,269.803 305.89,273.636 299.5,278.5C 298.5,255.51 298.167,232.51 298.5,209.5C 284.163,209.333 269.829,209.5 255.5,210C 261.851,238.632 251.518,258.632 224.5,270C 202.517,275.783 184.35,269.949 170,252.5C 161.432,239.21 158.932,224.876 162.5,209.5C 143.167,209.5 123.833,209.5 104.5,209.5C 104.5,139.5 104.5,69.5 104.5,-0.5 Z"/></g>
<g><path style="opacity:1" fill="#c2c2c2" d="M 120.5,14.5 C 124.5,14.5 128.5,14.5 132.5,14.5C 132.5,74.1667 132.5,133.833 132.5,193.5C 128.5,193.5 124.5,193.5 120.5,193.5C 120.5,133.833 120.5,74.1667 120.5,14.5 Z"/></g>
<g><path style="opacity:1" fill="#e8e8e8" d="M 132.5,14.5 C 187.833,14.5 243.167,14.5 298.5,14.5C 298.5,29.1667 298.5,43.8333 298.5,58.5C 267.798,52.43 247.298,64.0967 237,93.5C 233.628,124.275 246.795,143.775 276.5,152C 283.584,152.66 290.584,152.16 297.5,150.5C 298.496,164.657 298.829,178.99 298.5,193.5C 275.49,193.167 252.49,193.5 229.5,194.5C 229.624,195.107 229.957,195.44 230.5,195.5C 235.63,202.092 239.464,209.425 242,217.5C 243.634,237.07 235.134,249.903 216.5,256C 212.514,256.499 208.514,256.666 204.5,256.5C 192.014,245.256 187.181,231.256 190,214.5C 191.149,210.035 192.982,205.868 195.5,202C 191.975,201.821 188.641,201.321 185.5,200.5C 186.752,198.999 187.752,197.332 188.5,195.5C 189.043,195.44 189.376,195.107 189.5,194.5C 170.512,193.5 151.512,193.167 132.5,193.5C 132.5,133.833 132.5,74.1667 132.5,14.5 Z"/></g>
<g><path style="opacity:1" fill="#595959" d="M 326.5,14.5 C 326.667,33.1696 326.5,51.8363 326,70.5C 322.697,68.4322 319.197,66.7655 315.5,65.5C 314.833,71.8333 314.167,78.1667 313.5,84.5C 312.893,84.3764 312.56,84.0431 312.5,83.5C 313.498,60.6727 313.831,37.6727 313.5,14.5C 317.833,14.5 322.167,14.5 326.5,14.5 Z"/></g>
<g><path style="opacity:1" fill="#838383" d="M 326.5,14.5 C 381.833,14.5 437.167,14.5 492.5,14.5C 492.5,73.8333 492.5,133.167 492.5,192.5C 482.111,193.141 472.111,192.474 462.5,190.5C 467.131,164.748 457.131,147.748 432.5,139.5C 404.482,123.715 380.982,128.715 362,154.5C 355.211,166.869 353.711,179.869 357.5,193.5C 347.167,193.5 336.833,193.5 326.5,193.5C 326.833,175.155 326.5,156.821 325.5,138.5C 322.111,140.699 318.444,142.032 314.5,142.5C 314.823,136.31 314.49,130.31 313.5,124.5C 307.217,128.937 300.551,132.771 293.5,136C 288.49,137.638 283.49,137.805 278.5,136.5C 261.529,119.756 259.029,101.09 271,80.5C 274.038,77.6306 276.871,74.6306 279.5,71.5C 292.154,71.1606 303.154,75.1606 312.5,83.5C 312.56,84.0431 312.893,84.3764 313.5,84.5C 314.167,78.1667 314.833,71.8333 315.5,65.5C 319.197,66.7655 322.697,68.4322 326,70.5C 326.5,51.8363 326.667,33.1696 326.5,14.5 Z"/></g>
<g><path style="opacity:1" fill="#6d6d6d" d="M 492.5,14.5 C 493.499,73.9977 493.832,133.664 493.5,193.5C 482.833,193.5 472.167,193.5 461.5,193.5C 461.263,192.209 461.596,191.209 462.5,190.5C 472.111,192.474 482.111,193.141 492.5,192.5C 492.5,133.167 492.5,73.8333 492.5,14.5 Z"/></g>
<g><path style="opacity:1" fill="#fefefe" d="M 136.5,24.5 C 141.5,24.5 146.5,24.5 151.5,24.5C 151.5,29.5 151.5,34.5 151.5,39.5C 146.5,39.5 141.5,39.5 136.5,39.5C 136.5,34.5 136.5,29.5 136.5,24.5 Z"/></g>
<g><path style="opacity:1" fill="#010101" d="M 459.5,24.5 C 464.5,24.5 469.5,24.5 474.5,24.5C 474.5,29.5 474.5,34.5 474.5,39.5C 469.5,39.5 464.5,39.5 459.5,39.5C 459.5,34.5 459.5,29.5 459.5,24.5 Z"/></g>
<g><path style="opacity:1" fill="#595959" d="M 279.5,71.5 C 276.871,74.6306 274.038,77.6306 271,80.5C 259.029,101.09 261.529,119.756 278.5,136.5C 261.105,132.433 252.105,121.433 251.5,103.5C 252.629,85.702 261.962,75.0353 279.5,71.5 Z"/></g>
<g><path style="opacity:1" fill="#595959" d="M 313.5,124.5 C 314.49,130.31 314.823,136.31 314.5,142.5C 318.444,142.032 322.111,140.699 325.5,138.5C 326.5,156.821 326.833,175.155 326.5,193.5C 322.167,193.5 317.833,193.5 313.5,193.5C 313.5,170.5 313.5,147.5 313.5,124.5 Z"/></g>
<g><path style="opacity:1" fill="#595959" d="M 432.5,139.5 C 457.131,147.748 467.131,164.748 462.5,190.5C 461.596,191.209 461.263,192.209 461.5,193.5C 457.5,193.5 453.5,193.5 449.5,193.5C 454.644,172.072 448.978,154.072 432.5,139.5 Z"/></g>
<g><path style="opacity:1" fill="#e7e7e7" d="M 423.5,208.5 C 446.327,209.498 469.327,209.831 492.5,209.5C 492.5,268.833 492.5,328.167 492.5,387.5C 471.993,387.17 451.66,387.503 431.5,388.5C 431.802,391.059 431.468,393.393 430.5,395.5C 425.833,395.5 421.167,395.5 416.5,395.5C 416.5,392.833 416.5,390.167 416.5,387.5C 386.5,387.5 356.5,387.5 326.5,387.5C 326.5,373.833 326.5,360.167 326.5,346.5C 329.385,346.806 332.052,346.473 334.5,345.5C 342.752,344.416 350.419,341.75 357.5,337.5C 377.663,331.874 388.329,318.54 389.5,297.5C 388.488,281.673 381.154,269.839 367.5,262C 363.968,260.368 360.301,259.201 356.5,258.5C 349.399,254.244 341.732,251.577 333.5,250.5C 331.393,249.532 329.059,249.198 326.5,249.5C 326.5,236.167 326.5,222.833 326.5,209.5C 345.674,209.83 364.674,209.497 383.5,208.5C 382.167,206.167 380.833,203.833 379.5,201.5C 382.641,200.679 385.975,200.179 389.5,200C 381.385,185.114 381.551,170.281 390,155.5C 392.362,151.973 395.196,148.973 398.5,146.5C 406.519,145.09 414.185,146.59 421.5,151C 433.295,159.095 438.128,170.262 436,184.5C 433.146,193.209 428.979,201.209 423.5,208.5 Z"/></g>
<g><path style="opacity:1" fill="#c7c7c7" d="M 398.5,146.5 C 395.196,148.973 392.362,151.973 390,155.5C 381.551,170.281 381.385,185.114 389.5,200C 385.975,200.179 382.641,200.679 379.5,201.5C 371.506,191.851 369.006,180.851 372,168.5C 376.672,156.09 385.505,148.756 398.5,146.5 Z"/></g>
<g><path style="opacity:1" fill="#474747" d="M 297.5,150.5 C 297.56,149.957 297.893,149.624 298.5,149.5C 299.826,164.328 299.826,178.995 298.5,193.5C 298.829,178.99 298.496,164.657 297.5,150.5 Z"/></g>
<g><path style="opacity:1" fill="#878787" d="M 120.5,14.5 C 120.5,74.1667 120.5,133.833 120.5,193.5C 124.5,193.5 128.5,193.5 132.5,193.5C 151.512,193.167 170.512,193.5 189.5,194.5C 189.376,195.107 189.043,195.44 188.5,195.5C 165.673,194.502 142.673,194.169 119.5,194.5C 119.168,134.331 119.501,74.331 120.5,14.5 Z"/></g>
<g><path style="opacity:1" fill="#7b7b7b" d="M 298.5,193.5 C 275.833,194.167 253.167,194.833 230.5,195.5C 229.957,195.44 229.624,195.107 229.5,194.5C 252.49,193.5 275.49,193.167 298.5,193.5 Z"/></g>
<g><path style="opacity:1" fill="#bfbfbf" d="M 185.5,200.5 C 188.641,201.321 191.975,201.821 195.5,202C 192.982,205.868 191.149,210.035 190,214.5C 187.181,231.256 192.014,245.256 204.5,256.5C 183.748,251.232 174.581,237.899 177,216.5C 178.825,210.54 181.659,205.207 185.5,200.5 Z"/></g>
<g><path style="opacity:1" fill="#c9c9c9" d="M 383.5,208.5 C 364.674,209.497 345.674,209.83 326.5,209.5C 326.5,222.833 326.5,236.167 326.5,249.5C 329.059,249.198 331.393,249.532 333.5,250.5C 327.174,250.126 321.007,250.793 315,252.5C 314.5,237.837 314.333,223.17 314.5,208.5C 337.5,208.5 360.5,208.5 383.5,208.5 Z"/></g>
<g><path style="opacity:1" fill="#b0b0b0" d="M 423.5,208.5 C 446.833,208.5 470.167,208.5 493.5,208.5C 493.5,268.5 493.5,328.5 493.5,388.5C 472.833,388.5 452.167,388.5 431.5,388.5C 451.66,387.503 471.993,387.17 492.5,387.5C 492.5,328.167 492.5,268.833 492.5,209.5C 469.327,209.831 446.327,209.498 423.5,208.5 Z"/></g>
<g><path style="opacity:1" fill="#c8c8c8" d="M 356.5,258.5 C 360.301,259.201 363.968,260.368 367.5,262C 381.154,269.839 388.488,281.673 389.5,297.5C 388.329,318.54 377.663,331.874 357.5,337.5C 363.981,331.852 369.148,325.186 373,317.5C 381.634,293.687 376.134,274.02 356.5,258.5 Z"/></g>
<g><path style="opacity:0.97" fill="#000000" d="M 212.5,511.5 C 142.5,511.5 72.5,511.5 2.5,511.5C 2.5,473.167 2.5,434.833 2.5,396.5C 4.83333,396.5 7.16667,396.5 9.5,396.5C 11.9479,397.473 14.6146,397.806 17.5,397.5C 17.5,430.5 17.5,463.5 17.5,496.5C 21.8333,496.5 26.1667,496.5 30.5,496.5C 85.8333,496.5 141.167,496.5 196.5,496.5C 197.167,473.5 197.833,450.5 198.5,427.5C 204.895,432.366 211.895,436.199 219.5,439C 247.812,440.354 260.978,426.854 259,398.5C 251.887,378.859 238.053,371.025 217.5,375C 210.499,378.004 203.999,381.838 198,386.5C 197.5,363.502 197.333,340.502 197.5,317.5C 186.833,317.5 176.167,317.5 165.5,317.5C 161.5,317.5 157.5,317.5 153.5,317.5C 158.457,339.295 152.457,357.295 135.5,371.5C 111.237,385.879 89.4034,382.879 70,362.5C 60.2994,349.164 57.4661,334.497 61.5,318.5C 51.1881,317.501 40.8548,317.168 30.5,317.5C 26.1667,317.5 21.8333,317.5 17.5,317.5C 17.5,338.833 17.5,360.167 17.5,381.5C 14.6146,381.194 11.9479,381.527 9.5,382.5C 7.16667,382.5 4.83333,382.5 2.5,382.5C 2.5,355.5 2.5,328.5 2.5,301.5C 31.1744,301.167 59.8411,301.5 88.5,302.5C 83.2678,309.231 79.1011,316.565 76,324.5C 73.3033,348.069 83.8033,361.403 107.5,364.5C 123.784,363.443 134.284,355.109 139,339.5C 139.804,333.431 139.471,327.431 138,321.5C 134.669,314.834 130.836,308.501 126.5,302.5C 155.159,301.5 183.826,301.167 212.5,301.5C 212.333,321.169 212.5,340.836 213,360.5C 240.064,354.297 259.731,363.63 272,388.5C 279.878,412.194 274.044,431.694 254.5,447C 241.427,454.987 227.427,457.154 212.5,453.5C 212.5,472.833 212.5,492.167 212.5,511.5 Z"/></g>
<g><path style="opacity:1" fill="#656565" d="M 30.5,317.5 C 30.5,377.167 30.5,436.833 30.5,496.5C 26.1667,496.5 21.8333,496.5 17.5,496.5C 17.5,463.5 17.5,430.5 17.5,397.5C 14.6146,397.806 11.9479,397.473 9.5,396.5C 9.5,391.833 9.5,387.167 9.5,382.5C 11.9479,381.527 14.6146,381.194 17.5,381.5C 17.5,360.167 17.5,338.833 17.5,317.5C 21.8333,317.5 26.1667,317.5 30.5,317.5 Z"/></g>
<g><path style="opacity:1" fill="#9d9d9d" d="M 30.5,317.5 C 40.8548,317.168 51.1881,317.501 61.5,318.5C 57.4661,334.497 60.2994,349.164 70,362.5C 89.4034,382.879 111.237,385.879 135.5,371.5C 159.819,364.302 170.319,347.968 167,322.5C 166.392,320.846 165.892,319.179 165.5,317.5C 176.167,317.5 186.833,317.5 197.5,317.5C 197.333,340.502 197.5,363.502 198,386.5C 203.999,381.838 210.499,378.004 217.5,375C 238.053,371.025 251.887,378.859 259,398.5C 260.978,426.854 247.812,440.354 219.5,439C 211.895,436.199 204.895,432.366 198.5,427.5C 198.44,426.957 198.107,426.624 197.5,426.5C 196.5,449.824 196.167,473.157 196.5,496.5C 141.167,496.5 85.8333,496.5 30.5,496.5C 30.5,436.833 30.5,377.167 30.5,317.5 Z"/></g>
<g><path style="opacity:1" fill="#656565" d="M 165.5,317.5 C 165.892,319.179 166.392,320.846 167,322.5C 170.319,347.968 159.819,364.302 135.5,371.5C 152.457,357.295 158.457,339.295 153.5,317.5C 157.5,317.5 161.5,317.5 165.5,317.5 Z"/></g>
<g><path style="opacity:1" fill="#414141" d="M 316.5,344.5 C 314.517,358.461 313.85,372.794 314.5,387.5C 313.504,373.01 313.171,358.343 313.5,343.5C 314.791,343.263 315.791,343.596 316.5,344.5 Z"/></g>
<g><path style="opacity:1" fill="#c8c8c8" d="M 316.5,344.5 C 322.455,345.363 328.455,345.697 334.5,345.5C 332.052,346.473 329.385,346.806 326.5,346.5C 326.5,360.167 326.5,373.833 326.5,387.5C 322.5,387.5 318.5,387.5 314.5,387.5C 313.85,372.794 314.517,358.461 316.5,344.5 Z"/></g>
<g><path style="opacity:1" fill="#fefefe" d="M 459.5,356.5 C 464.5,356.5 469.5,356.5 474.5,356.5C 474.5,361.5 474.5,366.5 474.5,371.5C 469.5,371.5 464.5,371.5 459.5,371.5C 459.5,366.5 459.5,361.5 459.5,356.5 Z"/></g>
<g><path style="opacity:1" fill="#5a5a5a" d="M 314.5,387.5 C 318.5,387.5 322.5,387.5 326.5,387.5C 356.5,387.5 386.5,387.5 416.5,387.5C 416.5,390.167 416.5,392.833 416.5,395.5C 415.532,393.393 415.198,391.059 415.5,388.5C 381.663,388.832 347.996,388.498 314.5,387.5 Z"/></g>
<g><path style="opacity:1" fill="#6b6b6b" d="M 198.5,427.5 C 197.833,450.5 197.167,473.5 196.5,496.5C 196.167,473.157 196.5,449.824 197.5,426.5C 198.107,426.624 198.44,426.957 198.5,427.5 Z"/></g>
<g><path style="opacity:1" fill="#000000" d="M 32.5,470.5 C 37.1667,470.5 41.8333,470.5 46.5,470.5C 46.5,475.167 46.5,479.833 46.5,484.5C 41.8333,484.5 37.1667,484.5 32.5,484.5C 32.5,479.833 32.5,475.167 32.5,470.5 Z"/></g>
<g><path style="opacity:1" fill="#424242" d="M 32.5,470.5 C 37.3054,469.513 42.3054,469.179 47.5,469.5C 47.5,474.833 47.5,480.167 47.5,485.5C 42.3054,485.821 37.3054,485.487 32.5,484.5C 37.1667,484.5 41.8333,484.5 46.5,484.5C 46.5,479.833 46.5,475.167 46.5,470.5C 41.8333,470.5 37.1667,470.5 32.5,470.5 Z"/></g>
</svg>
