<?xml version="1.0" encoding="UTF-8"?>
<!DOCTYPE svg PUBLIC "-//W3C//DTD SVG 1.1//EN" "http://www.w3.org/Graphics/SVG/1.1/DTD/svg11.dtd">
<svg xmlns="http://www.w3.org/2000/svg" version="1.1" width="512px" height="512px" style="shape-rendering:geometricPrecision; text-rendering:geometricPrecision; image-rendering:optimizeQuality; fill-rule:evenodd; clip-rule:evenodd" xmlns:xlink="http://www.w3.org/1999/xlink">
<g><path style="opacity:0.994" fill="#002986" d="M 126.5,-0.5 C 195.5,-0.5 264.5,-0.5 333.5,-0.5C 373.977,6.47313 403.143,28.4731 421,65.5C 429.557,86.8636 432.057,108.864 428.5,131.5C 414.171,122.222 398.504,116.389 381.5,114C 331.5,113.333 281.5,113.333 231.5,114C 218.333,117.833 209.833,126.333 206,139.5C 197.059,192.143 188.226,244.81 179.5,297.5C 179.543,298.416 179.876,299.083 180.5,299.5C 178.898,303.323 177.731,307.323 177,311.5C 169.831,354.516 162.664,397.516 155.5,440.5C 154.833,440.5 154.5,440.833 154.5,441.5C 150.109,448.37 143.775,452.203 135.5,453C 111.5,453.667 87.5,453.667 63.5,453C 49.6252,450.629 42.2918,442.462 41.5,428.5C 63.9092,290.378 87.0758,152.378 111,14.5C 114.106,7.22525 119.272,2.22525 126.5,-0.5 Z"/></g>
<g><path style="opacity:1" fill="#00186a" d="M 428.5,131.5 C 421.272,181.516 397.605,221.682 357.5,252C 332.017,269.943 303.683,280.61 272.5,284C 247.833,284.333 223.167,284.667 198.5,285C 190.498,287.517 184.498,292.35 180.5,299.5C 179.876,299.083 179.543,298.416 179.5,297.5C 188.226,244.81 197.059,192.143 206,139.5C 209.833,126.333 218.333,117.833 231.5,114C 281.5,113.333 331.5,113.333 381.5,114C 398.504,116.389 414.171,122.222 428.5,131.5 Z"/></g>
<g><path style="opacity:1" fill="#0084cb" d="M 428.5,131.5 C 431.81,133.482 434.81,135.815 437.5,138.5C 439.766,142.436 442.766,145.769 446.5,148.5C 462.56,166.837 470.227,188.337 469.5,213C 466.322,277.729 435.655,324.062 377.5,352C 364.682,357.494 351.348,361.161 337.5,363C 322.146,363.893 306.813,364.893 291.5,366C 286.672,367.322 282.338,369.489 278.5,372.5C 275.833,373.167 274.167,374.833 273.5,377.5C 269.763,382.191 267.263,387.524 266,393.5C 260.323,428.56 254.323,463.56 248,498.5C 244.899,504.437 240.399,508.77 234.5,511.5C 210.5,511.5 186.5,511.5 162.5,511.5C 149.778,506.057 144.945,496.391 148,482.5C 150.493,468.873 152.659,455.206 154.5,441.5C 155.167,441.5 155.5,441.167 155.5,440.5C 162.664,397.516 169.831,354.516 177,311.5C 177.731,307.323 178.898,303.323 180.5,299.5C 184.498,292.35 190.498,287.517 198.5,285C 223.167,284.667 247.833,284.333 272.5,284C 303.683,280.61 332.017,269.943 357.5,252C 397.605,221.682 421.272,181.516 428.5,131.5 Z"/></g>
<g><path style="opacity:0.949" fill="#0164b3" d="M 437.5,138.5 C 441.234,141.231 444.234,144.564 446.5,148.5C 442.766,145.769 439.766,142.436 437.5,138.5 Z"/></g>
<g><path style="opacity:0.008" fill="#005dae" d="M 278.5,372.5 C 277.167,374.5 275.5,376.167 273.5,377.5C 274.167,374.833 275.833,373.167 278.5,372.5 Z"/></g>
</svg>
