<?xml version="1.0" encoding="UTF-8"?>
<!DOCTYPE svg PUBLIC "-//W3C//DTD SVG 1.1//EN" "http://www.w3.org/Graphics/SVG/1.1/DTD/svg11.dtd">
<svg xmlns="http://www.w3.org/2000/svg" version="1.1" width="200px" height="200px" style="shape-rendering:geometricPrecision; text-rendering:geometricPrecision; image-rendering:optimizeQuality; fill-rule:evenodd; clip-rule:evenodd" xmlns:xlink="http://www.w3.org/1999/xlink">
<g><path style="opacity:1" fill="#3f301e" d="M 174.5,16.5 C 147.833,16.5 121.167,16.5 94.5,16.5C 93.8333,16.5 93.1667,16.5 92.5,16.5C 105.817,15.1674 119.483,14.5007 133.5,14.5C 147.517,14.5007 161.183,15.1674 174.5,16.5 Z"/></g>
<g><path style="opacity:1" fill="#131414" d="M 94.5,16.5 C 121.167,16.5 147.833,16.5 174.5,16.5C 174.5,18.5 174.5,20.5 174.5,22.5C 174.5,22.8333 174.5,23.1667 174.5,23.5C 174.167,23.5 173.833,23.5 173.5,23.5C 158.833,23.5 144.167,23.5 129.5,23.5C 123.5,23.5 117.5,23.5 111.5,23.5C 105.833,23.5 100.167,23.5 94.5,23.5C 94.5,21.1667 94.5,18.8333 94.5,16.5 Z"/></g>
<g><path style="opacity:0.371" fill="#7d552b" d="M 92.5,22.5 C 92.5,22.8333 92.5,23.1667 92.5,23.5C 83.3483,24.4936 74.015,24.8269 64.5,24.5C 64.6107,23.8826 64.944,23.3826 65.5,23C 74.4938,22.5002 83.4938,22.3336 92.5,22.5 Z"/></g>
<g><path style="opacity:1" fill="#532633" d="M 111.5,24.5 C 111.5,24.1667 111.5,23.8333 111.5,23.5C 117.5,23.5 123.5,23.5 129.5,23.5C 129.5,24.1667 129.5,24.8333 129.5,25.5C 129.167,25.5 128.833,25.5 128.5,25.5C 123.025,24.5111 117.358,24.1778 111.5,24.5 Z"/></g>
<g><path style="opacity:1" fill="#4b3620" d="M 92.5,23.5 C 93.3382,23.8417 93.6716,24.5084 93.5,25.5C 84.8333,25.5 76.1667,25.5 67.5,25.5C 66.5,25.5 65.5,25.5 64.5,25.5C 64.5,25.1667 64.5,24.8333 64.5,24.5C 74.015,24.8269 83.3483,24.4936 92.5,23.5 Z"/></g>
<g><path style="opacity:1" fill="#2d2d2c" d="M 92.5,16.5 C 93.1667,16.5 93.8333,16.5 94.5,16.5C 94.5,18.8333 94.5,21.1667 94.5,23.5C 100.167,23.5 105.833,23.5 111.5,23.5C 111.5,23.8333 111.5,24.1667 111.5,24.5C 110.523,27.2869 110.19,30.2869 110.5,33.5C 104.5,33.5 98.5,33.5 92.5,33.5C 93.388,30.9455 93.7214,28.2788 93.5,25.5C 93.6716,24.5084 93.3382,23.8417 92.5,23.5C 92.5,23.1667 92.5,22.8333 92.5,22.5C 92.5,20.5 92.5,18.5 92.5,16.5 Z"/></g>
<g><path style="opacity:1" fill="#2c2c2c" d="M 129.5,23.5 C 144.167,23.5 158.833,23.5 173.5,23.5C 161.678,24.4951 149.678,24.8284 137.5,24.5C 137.5,27.1667 137.5,29.8333 137.5,32.5C 134.833,32.5 132.167,32.5 129.5,32.5C 129.5,30.1667 129.5,27.8333 129.5,25.5C 129.5,24.8333 129.5,24.1667 129.5,23.5 Z"/></g>
<g><path style="opacity:1" fill="#535252" d="M 156.5,33.5 C 156.5,36.1667 156.5,38.8333 156.5,41.5C 156.5,41.8333 156.5,42.1667 156.5,42.5C 156.167,42.5 155.833,42.5 155.5,42.5C 152.833,42.5 150.167,42.5 147.5,42.5C 147.81,39.2869 147.477,36.2869 146.5,33.5C 143.5,33.5 140.5,33.5 137.5,33.5C 134.833,33.5 132.167,33.5 129.5,33.5C 129.5,33.1667 129.5,32.8333 129.5,32.5C 132.167,32.5 134.833,32.5 137.5,32.5C 138.468,30.3926 138.802,28.0593 138.5,25.5C 150.167,25.5 161.833,25.5 173.5,25.5C 173.5,27.8333 173.5,30.1667 173.5,32.5C 167.642,32.1778 161.975,32.5111 156.5,33.5 Z"/></g>
<g><path style="opacity:1" fill="#141516" d="M 67.5,25.5 C 76.1667,25.5 84.8333,25.5 93.5,25.5C 93.7214,28.2788 93.388,30.9455 92.5,33.5C 89.5,33.5 86.5,33.5 83.5,33.5C 78.1667,33.5 72.8333,33.5 67.5,33.5C 67.5,30.8333 67.5,28.1667 67.5,25.5 Z"/></g>
<g><path style="opacity:1" fill="#755029" d="M 174.5,22.5 C 177.572,22.1826 180.572,22.5159 183.5,23.5C 184.417,26.7577 184.751,30.091 184.5,33.5C 184.167,33.5 183.833,33.5 183.5,33.5C 183.167,33.5 182.833,33.5 182.5,33.5C 182.5,30.8333 182.5,28.1667 182.5,25.5C 179.833,24.8333 177.167,24.1667 174.5,23.5C 174.5,23.1667 174.5,22.8333 174.5,22.5 Z"/></g>
<g><path style="opacity:1" fill="#151617" d="M 182.5,25.5 C 182.5,28.1667 182.5,30.8333 182.5,33.5C 179.833,33.5 177.167,33.5 174.5,33.5C 174.5,30.8333 174.5,28.1667 174.5,25.5C 177.167,25.5 179.833,25.5 182.5,25.5 Z"/></g>
<g><path style="opacity:1" fill="#ac3f5e" d="M 111.5,24.5 C 117.358,24.1778 123.025,24.5111 128.5,25.5C 123.167,25.5 117.833,25.5 112.5,25.5C 112.5,27.8333 112.5,30.1667 112.5,32.5C 117.833,32.5 123.167,32.5 128.5,32.5C 123.025,33.4889 117.358,33.8222 111.5,33.5C 111.5,30.5 111.5,27.5 111.5,24.5 Z"/></g>
<g><path style="opacity:1" fill="#693943" d="M 111.5,24.5 C 111.5,27.5 111.5,30.5 111.5,33.5C 117.358,33.8222 123.025,33.4889 128.5,32.5C 128.5,30.1667 128.5,27.8333 128.5,25.5C 128.833,25.5 129.167,25.5 129.5,25.5C 129.5,27.8333 129.5,30.1667 129.5,32.5C 129.5,32.8333 129.5,33.1667 129.5,33.5C 129.5,36.5 129.5,39.5 129.5,42.5C 129.167,42.5 128.833,42.5 128.5,42.5C 128.5,39.8333 128.5,37.1667 128.5,34.5C 122.5,34.5 116.5,34.5 110.5,34.5C 110.5,34.1667 110.5,33.8333 110.5,33.5C 110.19,30.2869 110.523,27.2869 111.5,24.5 Z"/></g>
<g><path style="opacity:1" fill="#d64870" d="M 128.5,25.5 C 128.5,27.8333 128.5,30.1667 128.5,32.5C 123.167,32.5 117.833,32.5 112.5,32.5C 112.5,30.1667 112.5,27.8333 112.5,25.5C 117.833,25.5 123.167,25.5 128.5,25.5 Z"/></g>
<g><path style="opacity:1" fill="#2e2d2c" d="M 64.5,25.5 C 65.5,25.5 66.5,25.5 67.5,25.5C 67.5,28.1667 67.5,30.8333 67.5,33.5C 72.8333,33.5 78.1667,33.5 83.5,33.5C 83.5,36.1667 83.5,38.8333 83.5,41.5C 77.5,41.5 71.5,41.5 65.5,41.5C 65.8064,38.6146 65.4731,35.9479 64.5,33.5C 64.5,30.8333 64.5,28.1667 64.5,25.5 Z"/></g>
<g><path style="opacity:1" fill="#564f4f" d="M 83.5,33.5 C 86.5,33.5 89.5,33.5 92.5,33.5C 98.5,33.5 104.5,33.5 110.5,33.5C 110.5,33.8333 110.5,34.1667 110.5,34.5C 110.5,37.1667 110.5,39.8333 110.5,42.5C 101.833,42.5 93.1667,42.5 84.5,42.5C 72.5,42.5 60.5,42.5 48.5,42.5C 48.5,42.1667 48.5,41.8333 48.5,41.5C 54.1667,41.5 59.8333,41.5 65.5,41.5C 71.5,41.5 77.5,41.5 83.5,41.5C 83.5,38.8333 83.5,36.1667 83.5,33.5 Z"/></g>
<g><path style="opacity:1" fill="#161617" d="M 156.5,33.5 C 162.167,33.5 167.833,33.5 173.5,33.5C 173.5,36.1667 173.5,38.8333 173.5,41.5C 167.833,41.5 162.167,41.5 156.5,41.5C 156.5,38.8333 156.5,36.1667 156.5,33.5 Z"/></g>
<g><path style="opacity:0.871" fill="#111314" d="M 64.5,33.5 C 65.4731,35.9479 65.8064,38.6146 65.5,41.5C 59.8333,41.5 54.1667,41.5 48.5,41.5C 48.5,40.8333 48.1667,40.5 47.5,40.5C 47.5,38.1667 47.5,35.8333 47.5,33.5C 53.1667,33.5 58.8333,33.5 64.5,33.5 Z"/></g>
<g><path style="opacity:1" fill="#2f302f" d="M 110.5,34.5 C 116.5,34.5 122.5,34.5 128.5,34.5C 128.5,37.1667 128.5,39.8333 128.5,42.5C 122.833,42.5 117.167,42.5 111.5,42.5C 111.167,42.5 110.833,42.5 110.5,42.5C 110.5,39.8333 110.5,37.1667 110.5,34.5 Z"/></g>
<g><path style="opacity:1" fill="#141515" d="M 183.5,33.5 C 183.833,33.5 184.167,33.5 184.5,33.5C 186.833,33.5 189.167,33.5 191.5,33.5C 191.5,39.5 191.5,45.5 191.5,51.5C 186.167,51.5 180.833,51.5 175.5,51.5C 175.5,48.5 175.5,45.5 175.5,42.5C 178.167,42.5 180.833,42.5 183.5,42.5C 183.5,39.5 183.5,36.5 183.5,33.5 Z"/></g>
<g><path style="opacity:0.525" fill="#443320" d="M 191.5,33.5 C 192.816,36.0866 193.483,39.0866 193.5,42.5C 193.483,45.9134 192.816,48.9134 191.5,51.5C 191.5,45.5 191.5,39.5 191.5,33.5 Z"/></g>
<g><path style="opacity:1" fill="#d2496d" d="M 137.5,33.5 C 140.5,33.5 143.5,33.5 146.5,33.5C 146.5,36.1667 146.5,38.8333 146.5,41.5C 143.5,41.5 140.5,41.5 137.5,41.5C 137.5,38.8333 137.5,36.1667 137.5,33.5 Z"/></g>
<g><path style="opacity:1" fill="#e25d5d" d="M 129.5,33.5 C 132.167,33.5 134.833,33.5 137.5,33.5C 137.5,36.1667 137.5,38.8333 137.5,41.5C 137.5,41.8333 137.5,42.1667 137.5,42.5C 134.833,42.5 132.167,42.5 129.5,42.5C 129.5,39.5 129.5,36.5 129.5,33.5 Z"/></g>
<g><path style="opacity:1" fill="#81542d" d="M 47.5,40.5 C 48.1667,40.5 48.5,40.8333 48.5,41.5C 48.5,41.8333 48.5,42.1667 48.5,42.5C 48.1667,42.5 47.8333,42.5 47.5,42.5C 46.8333,42.5 46.5,42.1667 46.5,41.5C 46.5,40.8333 46.8333,40.5 47.5,40.5 Z"/></g>
<g><path style="opacity:1" fill="#a84a64" d="M 146.5,33.5 C 147.477,36.2869 147.81,39.2869 147.5,42.5C 147.167,42.5 146.833,42.5 146.5,42.5C 143.5,42.5 140.5,42.5 137.5,42.5C 137.5,42.1667 137.5,41.8333 137.5,41.5C 140.5,41.5 143.5,41.5 146.5,41.5C 146.5,38.8333 146.5,36.1667 146.5,33.5 Z"/></g>
<g><path style="opacity:0.451" fill="#2a241b" d="M 156.5,42.5 C 156.5,42.1667 156.5,41.8333 156.5,41.5C 162.167,41.5 167.833,41.5 173.5,41.5C 173.842,42.3382 174.508,42.6716 175.5,42.5C 175.5,45.5 175.5,48.5 175.5,51.5C 173.631,49.3647 172.964,46.6981 173.5,43.5C 168.167,43.5 162.833,43.5 157.5,43.5C 157.5,42.8333 157.167,42.5 156.5,42.5 Z"/></g>
<g><path style="opacity:1" fill="#454443" d="M 173.5,23.5 C 173.833,23.5 174.167,23.5 174.5,23.5C 177.167,24.1667 179.833,24.8333 182.5,25.5C 179.833,25.5 177.167,25.5 174.5,25.5C 174.5,28.1667 174.5,30.8333 174.5,33.5C 177.167,33.5 179.833,33.5 182.5,33.5C 182.833,33.5 183.167,33.5 183.5,33.5C 183.5,36.5 183.5,39.5 183.5,42.5C 180.833,42.5 178.167,42.5 175.5,42.5C 174.508,42.6716 173.842,42.3382 173.5,41.5C 173.5,38.8333 173.5,36.1667 173.5,33.5C 167.833,33.5 162.167,33.5 156.5,33.5C 161.975,32.5111 167.642,32.1778 173.5,32.5C 173.5,30.1667 173.5,27.8333 173.5,25.5C 161.833,25.5 150.167,25.5 138.5,25.5C 138.802,28.0593 138.468,30.3926 137.5,32.5C 137.5,29.8333 137.5,27.1667 137.5,24.5C 149.678,24.8284 161.678,24.4951 173.5,23.5 Z"/></g>
<g><path style="opacity:0.503" fill="#513827" d="M 155.5,42.5 C 155.833,42.5 156.167,42.5 156.5,42.5C 157.167,42.5 157.5,42.8333 157.5,43.5C 157.5,48.8333 157.5,54.1667 157.5,59.5C 160.698,58.9644 163.365,59.631 165.5,61.5C 162.5,61.5 159.5,61.5 156.5,61.5C 153.375,60.5206 150.042,60.1872 146.5,60.5C 143.833,60.5 141.167,60.5 138.5,60.5C 138.5,60.1667 138.5,59.8333 138.5,59.5C 141.167,59.5 143.833,59.5 146.5,59.5C 146.833,59.5 147.167,59.5 147.5,59.5C 149.833,59.5 152.167,59.5 154.5,59.5C 155.489,54.0247 155.822,48.358 155.5,42.5 Z"/></g>
<g><path style="opacity:1" fill="#7c542b" d="M 39.5,41.5 C 39.5,44.5 39.5,47.5 39.5,50.5C 39.5,50.8333 39.5,51.1667 39.5,51.5C 39.1667,51.5 38.8333,51.5 38.5,51.5C 37.8333,51.5 37.5,51.1667 37.5,50.5C 36.9455,46.9878 37.6122,43.9878 39.5,41.5 Z"/></g>
<g><path style="opacity:1" fill="#d2476e" d="M 48.5,42.5 C 60.5,42.5 72.5,42.5 84.5,42.5C 84.5,45.1667 84.5,47.8333 84.5,50.5C 72.5,50.5 60.5,50.5 48.5,50.5C 48.5,47.8333 48.5,45.1667 48.5,42.5 Z"/></g>
<g><path style="opacity:1" fill="#ee5f60" d="M 84.5,42.5 C 93.1667,42.5 101.833,42.5 110.5,42.5C 110.5,45.1667 110.5,47.8333 110.5,50.5C 101.833,50.5 93.1667,50.5 84.5,50.5C 84.5,47.8333 84.5,45.1667 84.5,42.5 Z"/></g>
<g><path style="opacity:1" fill="#555252" d="M 111.5,42.5 C 117.167,42.5 122.833,42.5 128.5,42.5C 128.833,42.5 129.167,42.5 129.5,42.5C 132.167,42.5 134.833,42.5 137.5,42.5C 140.5,42.5 143.5,42.5 146.5,42.5C 146.5,48.1667 146.5,53.8333 146.5,59.5C 143.833,59.5 141.167,59.5 138.5,59.5C 138.806,56.6146 138.473,53.9479 137.5,51.5C 131.833,51.5 126.167,51.5 120.5,51.5C 117.5,51.5 114.5,51.5 111.5,51.5C 111.5,48.5 111.5,45.5 111.5,42.5 Z"/></g>
<g><path style="opacity:1" fill="#242422" d="M 146.5,42.5 C 146.833,42.5 147.167,42.5 147.5,42.5C 150.167,42.5 152.833,42.5 155.5,42.5C 155.822,48.358 155.489,54.0247 154.5,59.5C 154.5,54.1667 154.5,48.8333 154.5,43.5C 152.5,43.5 150.5,43.5 148.5,43.5C 148.782,48.9265 148.449,54.2599 147.5,59.5C 147.167,59.5 146.833,59.5 146.5,59.5C 146.5,53.8333 146.5,48.1667 146.5,42.5 Z"/></g>
<g><path style="opacity:1" fill="#121314" d="M 154.5,59.5 C 152.167,59.5 149.833,59.5 147.5,59.5C 148.449,54.2599 148.782,48.9265 148.5,43.5C 150.5,43.5 152.5,43.5 154.5,43.5C 154.5,48.8333 154.5,54.1667 154.5,59.5 Z"/></g>
<g><path style="opacity:1" fill="#171615" d="M 39.5,41.5 C 41.8333,41.5 44.1667,41.5 46.5,41.5C 46.5,42.1667 46.8333,42.5 47.5,42.5C 47.5,45.1667 47.5,47.8333 47.5,50.5C 44.8333,50.5 42.1667,50.5 39.5,50.5C 39.5,47.5 39.5,44.5 39.5,41.5 Z"/></g>
<g><path style="opacity:0.443" fill="#4f3922" d="M 37.5,50.5 C 37.5,51.1667 37.8333,51.5 38.5,51.5C 38.5,51.8333 38.5,52.1667 38.5,52.5C 35.8333,52.5 33.1667,52.5 30.5,52.5C 30.5,54.8333 30.5,57.1667 30.5,59.5C 29.6618,59.8417 29.3284,60.5084 29.5,61.5C 26.5,61.5 23.5,61.5 20.5,61.5C 22.6353,59.631 25.3019,58.9644 28.5,59.5C 28.5,56.5 28.5,53.5 28.5,50.5C 31.5,50.5 34.5,50.5 37.5,50.5 Z"/></g>
<g><path style="opacity:1" fill="#592735" d="M 47.5,42.5 C 47.8333,42.5 48.1667,42.5 48.5,42.5C 48.5,45.1667 48.5,47.8333 48.5,50.5C 48.5,50.8333 48.5,51.1667 48.5,51.5C 48.1667,51.5 47.8333,51.5 47.5,51.5C 44.8333,51.5 42.1667,51.5 39.5,51.5C 39.5,51.1667 39.5,50.8333 39.5,50.5C 42.1667,50.5 44.8333,50.5 47.5,50.5C 47.5,47.8333 47.5,45.1667 47.5,42.5 Z"/></g>
<g><path style="opacity:1" fill="#a84b53" d="M 110.5,42.5 C 110.833,42.5 111.167,42.5 111.5,42.5C 111.5,45.5 111.5,48.5 111.5,51.5C 111.167,51.5 110.833,51.5 110.5,51.5C 89.8333,51.5 69.1667,51.5 48.5,51.5C 48.5,51.1667 48.5,50.8333 48.5,50.5C 60.5,50.5 72.5,50.5 84.5,50.5C 93.1667,50.5 101.833,50.5 110.5,50.5C 110.5,47.8333 110.5,45.1667 110.5,42.5 Z"/></g>
<g><path style="opacity:1" fill="#ef6060" d="M 120.5,51.5 C 126.167,51.5 131.833,51.5 137.5,51.5C 137.5,54.1667 137.5,56.8333 137.5,59.5C 131.833,59.5 126.167,59.5 120.5,59.5C 120.5,56.8333 120.5,54.1667 120.5,51.5 Z"/></g>
<g><path style="opacity:1" fill="#d34a6e" d="M 111.5,51.5 C 114.5,51.5 117.5,51.5 120.5,51.5C 120.5,54.1667 120.5,56.8333 120.5,59.5C 117.5,59.5 114.5,59.5 111.5,59.5C 111.5,56.8333 111.5,54.1667 111.5,51.5 Z"/></g>
<g><path style="opacity:1" fill="#d3476e" d="M 39.5,51.5 C 42.1667,51.5 44.8333,51.5 47.5,51.5C 47.5,54.1667 47.5,56.8333 47.5,59.5C 44.8333,59.5 42.1667,59.5 39.5,59.5C 39.5,56.8333 39.5,54.1667 39.5,51.5 Z"/></g>
<g><path style="opacity:1" fill="#2f2e2d" d="M 48.5,51.5 C 69.1667,51.5 89.8333,51.5 110.5,51.5C 110.5,54.5 110.5,57.5 110.5,60.5C 95.8333,60.5 81.1667,60.5 66.5,60.5C 66.5,63.1667 66.5,65.8333 66.5,68.5C 69.7131,68.19 72.7131,68.5233 75.5,69.5C 72.1667,69.5 68.8333,69.5 65.5,69.5C 62.5,69.5 59.5,69.5 56.5,69.5C 56.5,72.1667 56.5,74.8333 56.5,77.5C 59.5,77.5 62.5,77.5 65.5,77.5C 65.5,77.8333 65.5,78.1667 65.5,78.5C 62.8333,78.5 60.1667,78.5 57.5,78.5C 57.1667,78.5 56.8333,78.5 56.5,78.5C 48.1667,78.5 39.8333,78.5 31.5,78.5C 31.5,81.1667 31.5,83.8333 31.5,86.5C 30.6829,84.0314 30.1829,81.3647 30,78.5C 29.6174,79.056 29.1174,79.3893 28.5,79.5C 25.8333,79.5 23.1667,79.5 20.5,79.5C 20.5,73.8333 20.5,68.1667 20.5,62.5C 22.4417,67.0557 23.1083,72.0557 22.5,77.5C 24.8333,77.5 27.1667,77.5 29.5,77.5C 29.5,75.1667 29.5,72.8333 29.5,70.5C 32.7131,70.81 35.7131,70.4767 38.5,69.5C 39.4731,67.0521 39.8064,64.3854 39.5,61.5C 42.7131,61.81 45.7131,61.4767 48.5,60.5C 48.5,57.5 48.5,54.5 48.5,51.5 Z"/></g>
<g><path style="opacity:1" fill="#121314" d="M 38.5,52.5 C 38.5,54.8333 38.5,57.1667 38.5,59.5C 35.8333,59.5 33.1667,59.5 30.5,59.5C 30.5,57.1667 30.5,54.8333 30.5,52.5C 33.1667,52.5 35.8333,52.5 38.5,52.5 Z"/></g>
<g><path style="opacity:1" fill="#963e56" d="M 47.5,51.5 C 47.8333,51.5 48.1667,51.5 48.5,51.5C 48.5,54.5 48.5,57.5 48.5,60.5C 45.2869,60.81 42.2869,60.4767 39.5,59.5C 42.1667,59.5 44.8333,59.5 47.5,59.5C 47.5,56.8333 47.5,54.1667 47.5,51.5 Z"/></g>
<g><path style="opacity:1" fill="#8e3950" d="M 110.5,51.5 C 110.833,51.5 111.167,51.5 111.5,51.5C 111.5,54.1667 111.5,56.8333 111.5,59.5C 114.5,59.5 117.5,59.5 120.5,59.5C 120.5,59.8333 120.5,60.1667 120.5,60.5C 117.5,60.5 114.5,60.5 111.5,60.5C 111.167,60.5 110.833,60.5 110.5,60.5C 110.5,57.5 110.5,54.5 110.5,51.5 Z"/></g>
<g><path style="opacity:1" fill="#aa504f" d="M 137.5,51.5 C 138.473,53.9479 138.806,56.6146 138.5,59.5C 138.5,59.8333 138.5,60.1667 138.5,60.5C 132.5,60.5 126.5,60.5 120.5,60.5C 120.5,60.1667 120.5,59.8333 120.5,59.5C 126.167,59.5 131.833,59.5 137.5,59.5C 137.5,56.8333 137.5,54.1667 137.5,51.5 Z"/></g>
<g><path style="opacity:1" fill="#6c3343" d="M 38.5,51.5 C 38.8333,51.5 39.1667,51.5 39.5,51.5C 39.5,54.1667 39.5,56.8333 39.5,59.5C 42.2869,60.4767 45.2869,60.81 48.5,60.5C 45.7131,61.4767 42.7131,61.81 39.5,61.5C 39.8064,64.3854 39.4731,67.0521 38.5,69.5C 35.7131,70.4767 32.7131,70.81 29.5,70.5C 29.5,67.5 29.5,64.5 29.5,61.5C 29.3284,60.5084 29.6618,59.8417 30.5,59.5C 33.1667,59.5 35.8333,59.5 38.5,59.5C 38.5,57.1667 38.5,54.8333 38.5,52.5C 38.5,52.1667 38.5,51.8333 38.5,51.5 Z"/></g>
<g><path style="opacity:1" fill="#171616" d="M 110.5,60.5 C 110.833,60.5 111.167,60.5 111.5,60.5C 116.975,61.4889 122.642,61.8222 128.5,61.5C 128.5,63.8333 128.5,66.1667 128.5,68.5C 125.615,68.1936 122.948,68.5269 120.5,69.5C 120.167,69.5 119.833,69.5 119.5,69.5C 116.833,69.5 114.167,69.5 111.5,69.5C 108.167,69.5 104.833,69.5 101.5,69.5C 98.5,69.5 95.5,69.5 92.5,69.5C 89.8333,69.5 87.1667,69.5 84.5,69.5C 81.5,69.5 78.5,69.5 75.5,69.5C 72.7131,68.5233 69.7131,68.19 66.5,68.5C 66.5,65.8333 66.5,63.1667 66.5,60.5C 81.1667,60.5 95.8333,60.5 110.5,60.5 Z"/></g>
<g><path style="opacity:1" fill="#cc476c" d="M 138.5,60.5 C 141.167,60.5 143.833,60.5 146.5,60.5C 146.5,60.8333 146.5,61.1667 146.5,61.5C 146.5,63.8333 146.5,66.1667 146.5,68.5C 146.5,68.8333 146.5,69.1667 146.5,69.5C 143.833,69.5 141.167,69.5 138.5,69.5C 138.5,66.5 138.5,63.5 138.5,60.5 Z"/></g>
<g><path style="opacity:1" fill="#f06061" d="M 146.5,61.5 C 149.5,61.5 152.5,61.5 155.5,61.5C 155.5,63.8333 155.5,66.1667 155.5,68.5C 152.5,68.5 149.5,68.5 146.5,68.5C 146.5,66.1667 146.5,63.8333 146.5,61.5 Z"/></g>
<g><path style="opacity:1" fill="#ac4a4a" d="M 146.5,61.5 C 146.5,61.1667 146.5,60.8333 146.5,60.5C 150.042,60.1872 153.375,60.5206 156.5,61.5C 156.5,64.1667 156.5,66.8333 156.5,69.5C 153.167,69.5 149.833,69.5 146.5,69.5C 146.5,69.1667 146.5,68.8333 146.5,68.5C 149.5,68.5 152.5,68.5 155.5,68.5C 155.5,66.1667 155.5,63.8333 155.5,61.5C 152.5,61.5 149.5,61.5 146.5,61.5 Z"/></g>
<g><path style="opacity:1" fill="#111314" d="M 20.5,62.5 C 20.5,62.1667 20.5,61.8333 20.5,61.5C 23.5,61.5 26.5,61.5 29.5,61.5C 29.5,64.5 29.5,67.5 29.5,70.5C 29.5,72.8333 29.5,75.1667 29.5,77.5C 27.1667,77.5 24.8333,77.5 22.5,77.5C 23.1083,72.0557 22.4417,67.0557 20.5,62.5 Z"/></g>
<g><path style="opacity:1" fill="#2c2c2c" d="M 128.5,61.5 C 131.5,61.5 134.5,61.5 137.5,61.5C 137.5,64.1667 137.5,66.8333 137.5,69.5C 134.833,69.5 132.167,69.5 129.5,69.5C 126.5,69.5 123.5,69.5 120.5,69.5C 122.948,68.5269 125.615,68.1936 128.5,68.5C 128.5,66.1667 128.5,63.8333 128.5,61.5 Z"/></g>
<g><path style="opacity:1" fill="#1a1617" d="M 156.5,61.5 C 159.5,61.5 162.5,61.5 165.5,61.5C 165.5,63.5 165.5,65.5 165.5,67.5C 165.5,67.8333 165.5,68.1667 165.5,68.5C 162.609,69.4025 159.609,69.7359 156.5,69.5C 156.5,66.8333 156.5,64.1667 156.5,61.5 Z"/></g>
<g><path style="opacity:0.321" fill="#aa7134" d="M 165.5,67.5 C 166.833,67.5 167.5,68.1667 167.5,69.5C 167.167,69.5 166.833,69.5 166.5,69.5C 165.833,69.5 165.5,69.1667 165.5,68.5C 165.5,68.1667 165.5,67.8333 165.5,67.5 Z"/></g>
<g><path style="opacity:1" fill="#b24161" d="M 38.5,69.5 C 35.8333,69.5 33.1667,69.5 30.5,69.5C 30.5,66.5 30.5,63.5 30.5,60.5C 33.1667,60.5 35.8333,60.5 38.5,60.5C 38.5,63.5 38.5,66.5 38.5,69.5 Z"/></g>
<g><path style="opacity:1" fill="#d74870" d="M 31.5,61.5 C 33.5,61.5 35.5,61.5 37.5,61.5C 37.5,63.8333 37.5,66.1667 37.5,68.5C 35.5,68.5 33.5,68.5 31.5,68.5C 31.5,66.1667 31.5,63.8333 31.5,61.5 Z"/></g>
<g><path style="opacity:1" fill="#62353c" d="M 111.5,60.5 C 114.5,60.5 117.5,60.5 120.5,60.5C 126.5,60.5 132.5,60.5 138.5,60.5C 138.5,63.5 138.5,66.5 138.5,69.5C 141.167,69.5 143.833,69.5 146.5,69.5C 149.833,69.5 153.167,69.5 156.5,69.5C 156.5,69.8333 156.5,70.1667 156.5,70.5C 156.5,73.1667 156.5,75.8333 156.5,78.5C 155.527,76.0521 155.194,73.3854 155.5,70.5C 149.833,70.5 144.167,70.5 138.5,70.5C 137.833,70.5 137.5,70.1667 137.5,69.5C 137.5,66.8333 137.5,64.1667 137.5,61.5C 134.5,61.5 131.5,61.5 128.5,61.5C 122.642,61.8222 116.975,61.4889 111.5,60.5 Z"/></g>
<g><path style="opacity:1" fill="#8c6f65" d="M 65.5,69.5 C 68.8333,69.5 72.1667,69.5 75.5,69.5C 75.5,78.1667 75.5,86.8333 75.5,95.5C 78.1667,95.5 80.8333,95.5 83.5,95.5C 83.1778,89.642 83.5111,83.9753 84.5,78.5C 84.5,84.5 84.5,90.5 84.5,96.5C 81.1667,96.5 77.8333,96.5 74.5,96.5C 74.5,93.5 74.5,90.5 74.5,87.5C 74.5,81.8333 74.5,76.1667 74.5,70.5C 71.8333,70.5 69.1667,70.5 66.5,70.5C 66.8064,73.3854 66.4731,76.0521 65.5,78.5C 65.5,78.1667 65.5,77.8333 65.5,77.5C 65.5,74.8333 65.5,72.1667 65.5,69.5 Z"/></g>
<g><path style="opacity:1" fill="#363534" d="M 75.5,69.5 C 78.5,69.5 81.5,69.5 84.5,69.5C 84.5,72.1667 84.5,74.8333 84.5,77.5C 84.5,77.8333 84.5,78.1667 84.5,78.5C 83.5111,83.9753 83.1778,89.642 83.5,95.5C 80.8333,95.5 78.1667,95.5 75.5,95.5C 75.5,86.8333 75.5,78.1667 75.5,69.5 Z"/></g>
<g><path style="opacity:1" fill="#d67354" d="M 101.5,70.5 C 101.5,73.1667 101.5,75.8333 101.5,78.5C 98.8333,78.5 96.1667,78.5 93.5,78.5C 93.5,75.8333 93.5,73.1667 93.5,70.5C 96.1667,70.5 98.8333,70.5 101.5,70.5 Z"/></g>
<g><path style="opacity:1" fill="#976d60" d="M 101.5,70.5 C 101.5,70.1667 101.5,69.8333 101.5,69.5C 104.833,69.5 108.167,69.5 111.5,69.5C 111.5,72.5 111.5,75.5 111.5,78.5C 111.167,78.5 110.833,78.5 110.5,78.5C 110.5,75.8333 110.5,73.1667 110.5,70.5C 107.5,70.5 104.5,70.5 101.5,70.5 Z"/></g>
<g><path style="opacity:1" fill="#343434" d="M 111.5,69.5 C 114.167,69.5 116.833,69.5 119.5,69.5C 119.5,78.1667 119.5,86.8333 119.5,95.5C 117.167,95.5 114.833,95.5 112.5,95.5C 111.511,90.0247 111.178,84.358 111.5,78.5C 111.5,75.5 111.5,72.5 111.5,69.5 Z"/></g>
<g><path style="opacity:1" fill="#161616" d="M 129.5,69.5 C 132.167,69.5 134.833,69.5 137.5,69.5C 137.5,70.1667 137.833,70.5 138.5,70.5C 138.5,72.8333 138.5,75.1667 138.5,77.5C 135.5,77.5 132.5,77.5 129.5,77.5C 129.5,74.8333 129.5,72.1667 129.5,69.5 Z"/></g>
<g><path style="opacity:1" fill="#ef605f" d="M 156.5,70.5 C 159.167,70.5 161.833,70.5 164.5,70.5C 164.5,73.1667 164.5,75.8333 164.5,78.5C 161.833,78.5 159.167,78.5 156.5,78.5C 156.5,75.8333 156.5,73.1667 156.5,70.5 Z"/></g>
<g><path style="opacity:1" fill="#e39b85" d="M 74.5,87.5 C 71.8333,87.5 69.1667,87.5 66.5,87.5C 66.5,93.5 66.5,99.5 66.5,105.5C 72.5,105.5 78.5,105.5 84.5,105.5C 84.5,108.5 84.5,111.5 84.5,114.5C 78.1667,114.5 71.8333,114.5 65.5,114.5C 65.5,108.5 65.5,102.5 65.5,96.5C 62.5,96.5 59.5,96.5 56.5,96.5C 56.5,93.8333 56.5,91.1667 56.5,88.5C 56.5,88.1667 56.5,87.8333 56.5,87.5C 57.4767,84.7131 57.81,81.7131 57.5,78.5C 60.1667,78.5 62.8333,78.5 65.5,78.5C 66.4731,76.0521 66.8064,73.3854 66.5,70.5C 69.1667,70.5 71.8333,70.5 74.5,70.5C 74.5,76.1667 74.5,81.8333 74.5,87.5 Z"/></g>
<g><path style="opacity:1" fill="#782d2e" d="M 84.5,69.5 C 87.1667,69.5 89.8333,69.5 92.5,69.5C 92.5,72.1667 92.5,74.8333 92.5,77.5C 89.8333,77.5 87.1667,77.5 84.5,77.5C 84.5,74.8333 84.5,72.1667 84.5,69.5 Z"/></g>
<g><path style="opacity:1" fill="#a25344" d="M 92.5,69.5 C 95.5,69.5 98.5,69.5 101.5,69.5C 101.5,69.8333 101.5,70.1667 101.5,70.5C 98.8333,70.5 96.1667,70.5 93.5,70.5C 93.5,73.1667 93.5,75.8333 93.5,78.5C 93.1667,78.5 92.8333,78.5 92.5,78.5C 89.8333,78.5 87.1667,78.5 84.5,78.5C 84.5,78.1667 84.5,77.8333 84.5,77.5C 87.1667,77.5 89.8333,77.5 92.5,77.5C 92.5,74.8333 92.5,72.1667 92.5,69.5 Z"/></g>
<g><path style="opacity:1" fill="#e7a086" d="M 101.5,70.5 C 104.5,70.5 107.5,70.5 110.5,70.5C 110.5,73.1667 110.5,75.8333 110.5,78.5C 107.833,78.5 105.167,78.5 102.5,78.5C 102.5,81.5 102.5,84.5 102.5,87.5C 99.1667,87.5 95.8333,87.5 92.5,87.5C 92.5,84.5 92.5,81.5 92.5,78.5C 92.8333,78.5 93.1667,78.5 93.5,78.5C 93.5,81.1667 93.5,83.8333 93.5,86.5C 96.1667,86.5 98.8333,86.5 101.5,86.5C 101.5,83.8333 101.5,81.1667 101.5,78.5C 101.5,75.8333 101.5,73.1667 101.5,70.5 Z"/></g>
<g><path style="opacity:1" fill="#e39b85" d="M 129.5,78.5 C 132.167,78.5 134.833,78.5 137.5,78.5C 137.5,87.5 137.5,96.5 137.5,105.5C 134.833,105.5 132.167,105.5 129.5,105.5C 129.5,99.5 129.5,93.5 129.5,87.5C 126.5,87.5 123.5,87.5 120.5,87.5C 120.5,81.8333 120.5,76.1667 120.5,70.5C 123.167,70.5 125.833,70.5 128.5,70.5C 128.194,73.3854 128.527,76.0521 129.5,78.5 Z"/></g>
<g><path style="opacity:1" fill="#32302f" d="M 138.5,70.5 C 144.167,70.5 149.833,70.5 155.5,70.5C 155.194,73.3854 155.527,76.0521 156.5,78.5C 156.5,84.5 156.5,90.5 156.5,96.5C 159.167,96.5 161.833,96.5 164.5,96.5C 165.167,96.5 165.5,96.8333 165.5,97.5C 165.5,100.167 165.5,102.833 165.5,105.5C 159.5,105.5 153.5,105.5 147.5,105.5C 147.5,96.5 147.5,87.5 147.5,78.5C 144.833,78.5 142.167,78.5 139.5,78.5C 139.666,90.1871 139.333,101.854 138.5,113.5C 147.682,113.173 156.682,113.507 165.5,114.5C 162.5,114.5 159.5,114.5 156.5,114.5C 150.167,114.5 143.833,114.5 137.5,114.5C 134.833,114.5 132.167,114.5 129.5,114.5C 129.5,111.833 129.5,109.167 129.5,106.5C 132.385,106.806 135.052,106.473 137.5,105.5C 137.5,96.5 137.5,87.5 137.5,78.5C 134.833,78.5 132.167,78.5 129.5,78.5C 129.5,78.1667 129.5,77.8333 129.5,77.5C 132.5,77.5 135.5,77.5 138.5,77.5C 138.5,75.1667 138.5,72.8333 138.5,70.5 Z"/></g>
<g><path style="opacity:0.893" fill="#131314" d="M 166.5,69.5 C 166.833,69.5 167.167,69.5 167.5,69.5C 169.833,69.5 172.167,69.5 174.5,69.5C 174.5,71.8333 174.5,74.1667 174.5,76.5C 173.662,76.8417 173.328,77.5084 173.5,78.5C 170.833,78.5 168.167,78.5 165.5,78.5C 165.264,75.3915 165.597,72.3915 166.5,69.5 Z"/></g>
<g><path style="opacity:1" fill="#171717" d="M 65.5,69.5 C 65.5,72.1667 65.5,74.8333 65.5,77.5C 62.5,77.5 59.5,77.5 56.5,77.5C 56.5,74.8333 56.5,72.1667 56.5,69.5C 59.5,69.5 62.5,69.5 65.5,69.5 Z"/></g>
<g><path style="opacity:1" fill="#a28f85" d="M 110.5,78.5 C 110.833,78.5 111.167,78.5 111.5,78.5C 111.178,84.358 111.511,90.0247 112.5,95.5C 114.948,96.4731 117.615,96.8064 120.5,96.5C 117.375,97.4794 114.042,97.8128 110.5,97.5C 110.5,91.1667 110.5,84.8333 110.5,78.5 Z"/></g>
<g><path style="opacity:1" fill="#161616" d="M 165.5,105.5 C 168.167,105.5 170.833,105.5 173.5,105.5C 174.167,105.5 174.5,105.833 174.5,106.5C 174.5,109.5 174.5,112.5 174.5,115.5C 171.5,115.5 168.5,115.5 165.5,115.5C 165.5,115.167 165.5,114.833 165.5,114.5C 156.682,113.507 147.682,113.173 138.5,113.5C 139.333,101.854 139.666,90.1871 139.5,78.5C 142.167,78.5 144.833,78.5 147.5,78.5C 147.5,87.5 147.5,96.5 147.5,105.5C 153.5,105.5 159.5,105.5 165.5,105.5 Z"/></g>
<g><path style="opacity:1" fill="#944e4c" d="M 165.5,68.5 C 165.5,69.1667 165.833,69.5 166.5,69.5C 165.597,72.3915 165.264,75.3915 165.5,78.5C 165.5,84.1667 165.5,89.8333 165.5,95.5C 168.167,95.5 170.833,95.5 173.5,95.5C 173.5,89.8333 173.5,84.1667 173.5,78.5C 173.328,77.5084 173.662,76.8417 174.5,76.5C 175.167,76.5 175.5,76.8333 175.5,77.5C 174.542,83.7436 174.209,90.077 174.5,96.5C 171.609,97.4025 168.609,97.7359 165.5,97.5C 165.5,96.8333 165.167,96.5 164.5,96.5C 164.5,90.5 164.5,84.5 164.5,78.5C 164.5,75.8333 164.5,73.1667 164.5,70.5C 161.833,70.5 159.167,70.5 156.5,70.5C 156.5,70.1667 156.5,69.8333 156.5,69.5C 159.609,69.7359 162.609,69.4025 165.5,68.5 Z"/></g>
<g><path style="opacity:1" fill="#f7d1c2" d="M 84.5,78.5 C 87.1667,78.5 89.8333,78.5 92.5,78.5C 92.5,81.5 92.5,84.5 92.5,87.5C 95.8333,87.5 99.1667,87.5 102.5,87.5C 102.5,84.5 102.5,81.5 102.5,78.5C 105.167,78.5 107.833,78.5 110.5,78.5C 110.5,84.8333 110.5,91.1667 110.5,97.5C 114.042,97.8128 117.375,97.4794 120.5,96.5C 120.5,93.5 120.5,90.5 120.5,87.5C 123.5,87.5 126.5,87.5 129.5,87.5C 129.5,93.5 129.5,99.5 129.5,105.5C 129.167,105.5 128.833,105.5 128.5,105.5C 122.833,105.5 117.167,105.5 111.5,105.5C 111.5,108.5 111.5,111.5 111.5,114.5C 111.167,114.5 110.833,114.5 110.5,114.5C 101.833,114.5 93.1667,114.5 84.5,114.5C 84.5,111.5 84.5,108.5 84.5,105.5C 78.5,105.5 72.5,105.5 66.5,105.5C 66.5,99.5 66.5,93.5 66.5,87.5C 69.1667,87.5 71.8333,87.5 74.5,87.5C 74.5,90.5 74.5,93.5 74.5,96.5C 77.8333,96.5 81.1667,96.5 84.5,96.5C 84.5,90.5 84.5,84.5 84.5,78.5 Z"/></g>
<g><path style="opacity:1" fill="#ee9d60" d="M 93.5,78.5 C 96.1667,78.5 98.8333,78.5 101.5,78.5C 101.5,81.1667 101.5,83.8333 101.5,86.5C 98.8333,86.5 96.1667,86.5 93.5,86.5C 93.5,83.8333 93.5,81.1667 93.5,78.5 Z"/></g>
<g><path style="opacity:1" fill="#525252" d="M 156.5,78.5 C 159.167,78.5 161.833,78.5 164.5,78.5C 164.5,84.5 164.5,90.5 164.5,96.5C 161.833,96.5 159.167,96.5 156.5,96.5C 156.5,90.5 156.5,84.5 156.5,78.5 Z"/></g>
<g><path style="opacity:1" fill="#ef5f5f" d="M 165.5,78.5 C 168.167,78.5 170.833,78.5 173.5,78.5C 173.5,84.1667 173.5,89.8333 173.5,95.5C 170.833,95.5 168.167,95.5 165.5,95.5C 165.5,89.8333 165.5,84.1667 165.5,78.5 Z"/></g>
<g><path style="opacity:1" fill="#161616" d="M 175.5,77.5 C 177.833,77.5 180.167,77.5 182.5,77.5C 182.5,86.5 182.5,95.5 182.5,104.5C 179.833,104.5 177.167,104.5 174.5,104.5C 174.5,101.833 174.5,99.1667 174.5,96.5C 174.209,90.077 174.542,83.7436 175.5,77.5 Z"/></g>
<g><path style="opacity:0.42" fill="#7a532a" d="M 182.5,77.5 C 183.827,81.951 184.494,86.7843 184.5,92C 184.494,97.2157 183.827,102.049 182.5,106.5C 182.5,105.833 182.5,105.167 182.5,104.5C 182.5,95.5 182.5,86.5 182.5,77.5 Z"/></g>
<g><path style="opacity:1" fill="#4f3429" d="M 31.5,86.5 C 39.8333,86.5 48.1667,86.5 56.5,86.5C 56.5,83.8333 56.5,81.1667 56.5,78.5C 56.8333,78.5 57.1667,78.5 57.5,78.5C 57.81,81.7131 57.4767,84.7131 56.5,87.5C 50.5,87.5 44.5,87.5 38.5,87.5C 36.1667,87.5 33.8333,87.5 31.5,87.5C 30.5,87.5 29.5,87.5 28.5,87.5C 28.5,84.8333 28.5,82.1667 28.5,79.5C 29.1174,79.3893 29.6174,79.056 30,78.5C 30.1829,81.3647 30.6829,84.0314 31.5,86.5 Z"/></g>
<g><path style="opacity:1" fill="#141515" d="M 56.5,78.5 C 56.5,81.1667 56.5,83.8333 56.5,86.5C 48.1667,86.5 39.8333,86.5 31.5,86.5C 31.5,83.8333 31.5,81.1667 31.5,78.5C 39.8333,78.5 48.1667,78.5 56.5,78.5 Z"/></g>
<g><path style="opacity:1" fill="#ae5d46" d="M 38.5,87.5 C 44.5,87.5 50.5,87.5 56.5,87.5C 56.5,87.8333 56.5,88.1667 56.5,88.5C 50.8333,88.5 45.1667,88.5 39.5,88.5C 39.5,90.8333 39.5,93.1667 39.5,95.5C 39.8128,99.0419 39.4794,102.375 38.5,105.5C 38.5,105.167 38.5,104.833 38.5,104.5C 38.5,98.8333 38.5,93.1667 38.5,87.5 Z"/></g>
<g><path style="opacity:1" fill="#816860" d="M 119.5,69.5 C 119.833,69.5 120.167,69.5 120.5,69.5C 123.5,69.5 126.5,69.5 129.5,69.5C 129.5,72.1667 129.5,74.8333 129.5,77.5C 129.5,77.8333 129.5,78.1667 129.5,78.5C 128.527,76.0521 128.194,73.3854 128.5,70.5C 125.833,70.5 123.167,70.5 120.5,70.5C 120.5,76.1667 120.5,81.8333 120.5,87.5C 120.5,90.5 120.5,93.5 120.5,96.5C 117.615,96.8064 114.948,96.4731 112.5,95.5C 114.833,95.5 117.167,95.5 119.5,95.5C 119.5,86.8333 119.5,78.1667 119.5,69.5 Z"/></g>
<g><path style="opacity:0.437" fill="#914333" d="M 28.5,87.5 C 29.5,87.5 30.5,87.5 31.5,87.5C 31.5,93.1667 31.5,98.8333 31.5,104.5C 33.8333,104.5 36.1667,104.5 38.5,104.5C 38.5,104.833 38.5,105.167 38.5,105.5C 35.5,105.5 32.5,105.5 29.5,105.5C 29.1667,105.5 28.8333,105.5 28.5,105.5C 28.5,99.5 28.5,93.5 28.5,87.5 Z"/></g>
<g><path style="opacity:1" fill="#d47153" d="M 56.5,88.5 C 56.5,91.1667 56.5,93.8333 56.5,96.5C 59.5,96.5 62.5,96.5 65.5,96.5C 65.5,102.5 65.5,108.5 65.5,114.5C 62.8333,114.5 60.1667,114.5 57.5,114.5C 57.5,111.5 57.5,108.5 57.5,105.5C 54.5,105.5 51.5,105.5 48.5,105.5C 48.5,102.167 48.5,98.8333 48.5,95.5C 45.5,95.5 42.5,95.5 39.5,95.5C 39.5,93.1667 39.5,90.8333 39.5,88.5C 45.1667,88.5 50.8333,88.5 56.5,88.5 Z"/></g>
<g><path style="opacity:1" fill="#792c2e" d="M 31.5,87.5 C 33.8333,87.5 36.1667,87.5 38.5,87.5C 38.5,93.1667 38.5,98.8333 38.5,104.5C 36.1667,104.5 33.8333,104.5 31.5,104.5C 31.5,98.8333 31.5,93.1667 31.5,87.5 Z"/></g>
<g><path style="opacity:1" fill="#ee9e61" d="M 56.5,114.5 C 53.8333,114.5 51.1667,114.5 48.5,114.5C 48.5,117.167 48.5,119.833 48.5,122.5C 48.5,122.833 48.5,123.167 48.5,123.5C 48.1667,123.5 47.8333,123.5 47.5,123.5C 44.8333,123.5 42.1667,123.5 39.5,123.5C 39.5,126.167 39.5,128.833 39.5,131.5C 39.5,131.833 39.5,132.167 39.5,132.5C 38.5233,135.287 38.19,138.287 38.5,141.5C 35.5,141.5 32.5,141.5 29.5,141.5C 29.5,144.167 29.5,146.833 29.5,149.5C 27.1667,149.5 24.8333,149.5 22.5,149.5C 22.5,141.167 22.5,132.833 22.5,124.5C 25.5,124.5 28.5,124.5 31.5,124.5C 31.5,118.5 31.5,112.5 31.5,106.5C 34.5,106.5 37.5,106.5 40.5,106.5C 40.5,103.5 40.5,100.5 40.5,97.5C 42.5,97.5 44.5,97.5 46.5,97.5C 46.5,100.5 46.5,103.5 46.5,106.5C 49.8333,106.5 53.1667,106.5 56.5,106.5C 56.5,109.167 56.5,111.833 56.5,114.5 Z"/></g>
<g><path style="opacity:1" fill="#4f5050" d="M 174.5,96.5 C 174.5,99.1667 174.5,101.833 174.5,104.5C 173.833,104.5 173.5,104.833 173.5,105.5C 170.833,105.5 168.167,105.5 165.5,105.5C 165.5,102.833 165.5,100.167 165.5,97.5C 168.609,97.7359 171.609,97.4025 174.5,96.5 Z"/></g>
<g><path style="opacity:0.416" fill="#413021" d="M 173.5,105.5 C 173.5,104.833 173.833,104.5 174.5,104.5C 177.167,104.5 179.833,104.5 182.5,104.5C 182.5,105.167 182.5,105.833 182.5,106.5C 179.833,106.5 177.167,106.5 174.5,106.5C 174.5,105.833 174.167,105.5 173.5,105.5 Z"/></g>
<g><path style="opacity:1" fill="#826157" d="M 128.5,105.5 C 128.833,105.5 129.167,105.5 129.5,105.5C 132.167,105.5 134.833,105.5 137.5,105.5C 135.052,106.473 132.385,106.806 129.5,106.5C 129.5,109.167 129.5,111.833 129.5,114.5C 129.167,114.5 128.833,114.5 128.5,114.5C 128.5,111.5 128.5,108.5 128.5,105.5 Z"/></g>
<g><path style="opacity:1" fill="#df9a85" d="M 128.5,105.5 C 128.5,108.5 128.5,111.5 128.5,114.5C 122.833,114.5 117.167,114.5 111.5,114.5C 111.5,111.5 111.5,108.5 111.5,105.5C 117.167,105.5 122.833,105.5 128.5,105.5 Z"/></g>
<g><path style="opacity:1" fill="#d67354" d="M 56.5,114.5 C 56.5,117.167 56.5,119.833 56.5,122.5C 53.8333,122.5 51.1667,122.5 48.5,122.5C 48.5,119.833 48.5,117.167 48.5,114.5C 51.1667,114.5 53.8333,114.5 56.5,114.5 Z"/></g>
<g><path style="opacity:1" fill="#131414" d="M 129.5,114.5 C 132.167,114.5 134.833,114.5 137.5,114.5C 137.5,117.167 137.5,119.833 137.5,122.5C 129.167,122.5 120.833,122.5 112.5,122.5C 112.5,120.167 112.5,117.833 112.5,115.5C 118.358,115.822 124.025,115.489 129.5,114.5 Z"/></g>
<g><path style="opacity:1" fill="#161616" d="M 57.5,115.5 C 66.1667,115.5 74.8333,115.5 83.5,115.5C 83.5,118.167 83.5,120.833 83.5,123.5C 77.5,123.5 71.5,123.5 65.5,123.5C 62.8333,123.5 60.1667,123.5 57.5,123.5C 57.5,120.833 57.5,118.167 57.5,115.5 Z"/></g>
<g><path style="opacity:1" fill="#e59d86" d="M 84.5,114.5 C 93.1667,114.5 101.833,114.5 110.5,114.5C 110.5,117.167 110.5,119.833 110.5,122.5C 101.833,122.5 93.1667,122.5 84.5,122.5C 84.5,119.833 84.5,117.167 84.5,114.5 Z"/></g>
<g><path style="opacity:1" fill="#d67254" d="M 147.5,131.5 C 147.806,128.615 147.473,125.948 146.5,123.5C 144.393,122.532 142.059,122.198 139.5,122.5C 139.5,120.167 139.5,117.833 139.5,115.5C 144.833,115.5 150.167,115.5 155.5,115.5C 155.5,120.833 155.5,126.167 155.5,131.5C 152.833,131.5 150.167,131.5 147.5,131.5 Z"/></g>
<g><path style="opacity:1" fill="#a85843" d="M 137.5,114.5 C 143.833,114.5 150.167,114.5 156.5,114.5C 156.5,120.5 156.5,126.5 156.5,132.5C 153.5,132.5 150.5,132.5 147.5,132.5C 147.5,132.167 147.5,131.833 147.5,131.5C 150.167,131.5 152.833,131.5 155.5,131.5C 155.5,126.167 155.5,120.833 155.5,115.5C 150.167,115.5 144.833,115.5 139.5,115.5C 139.5,117.833 139.5,120.167 139.5,122.5C 142.059,122.198 144.393,122.532 146.5,123.5C 143.5,123.5 140.5,123.5 137.5,123.5C 137.5,123.167 137.5,122.833 137.5,122.5C 137.5,119.833 137.5,117.167 137.5,114.5 Z"/></g>
<g><path style="opacity:1" fill="#7b2f2e" d="M 156.5,114.5 C 159.5,114.5 162.5,114.5 165.5,114.5C 165.5,114.833 165.5,115.167 165.5,115.5C 165.5,127.5 165.5,139.5 165.5,151.5C 162.833,151.5 160.167,151.5 157.5,151.5C 156.833,151.5 156.5,151.167 156.5,150.5C 156.5,147.5 156.5,144.5 156.5,141.5C 156.5,138.5 156.5,135.5 156.5,132.5C 156.5,126.5 156.5,120.5 156.5,114.5 Z"/></g>
<g><path style="opacity:1" fill="#91503d" d="M 56.5,114.5 C 56.8333,114.5 57.1667,114.5 57.5,114.5C 57.5,114.833 57.5,115.167 57.5,115.5C 57.5,118.167 57.5,120.833 57.5,123.5C 54.5,123.5 51.5,123.5 48.5,123.5C 48.5,123.167 48.5,122.833 48.5,122.5C 51.1667,122.5 53.8333,122.5 56.5,122.5C 56.5,119.833 56.5,117.167 56.5,114.5 Z"/></g>
<g><path style="opacity:1" fill="#a47163" d="M 110.5,114.5 C 110.833,114.5 111.167,114.5 111.5,114.5C 111.5,117.5 111.5,120.5 111.5,123.5C 111.167,123.5 110.833,123.5 110.5,123.5C 101.651,123.826 92.9839,123.493 84.5,122.5C 93.1667,122.5 101.833,122.5 110.5,122.5C 110.5,119.833 110.5,117.167 110.5,114.5 Z"/></g>
<g><path style="opacity:1" fill="#2d2827" d="M 111.5,114.5 C 117.167,114.5 122.833,114.5 128.5,114.5C 128.833,114.5 129.167,114.5 129.5,114.5C 124.025,115.489 118.358,115.822 112.5,115.5C 112.5,117.833 112.5,120.167 112.5,122.5C 120.833,122.5 129.167,122.5 137.5,122.5C 137.5,122.833 137.5,123.167 137.5,123.5C 128.833,123.5 120.167,123.5 111.5,123.5C 111.5,120.5 111.5,117.5 111.5,114.5 Z"/></g>
<g><path style="opacity:1" fill="#e2905c" d="M 39.5,95.5 C 42.5,95.5 45.5,95.5 48.5,95.5C 48.5,98.8333 48.5,102.167 48.5,105.5C 51.5,105.5 54.5,105.5 57.5,105.5C 57.5,108.5 57.5,111.5 57.5,114.5C 57.1667,114.5 56.8333,114.5 56.5,114.5C 56.5,111.833 56.5,109.167 56.5,106.5C 53.1667,106.5 49.8333,106.5 46.5,106.5C 46.5,103.5 46.5,100.5 46.5,97.5C 44.5,97.5 42.5,97.5 40.5,97.5C 40.5,100.5 40.5,103.5 40.5,106.5C 37.5,106.5 34.5,106.5 31.5,106.5C 31.5,112.5 31.5,118.5 31.5,124.5C 28.5,124.5 25.5,124.5 22.5,124.5C 22.5,132.833 22.5,141.167 22.5,149.5C 24.8333,149.5 27.1667,149.5 29.5,149.5C 29.5,149.833 29.5,150.167 29.5,150.5C 26.8333,150.5 24.1667,150.5 21.5,150.5C 21.5,141.5 21.5,132.5 21.5,123.5C 24.1667,123.5 26.8333,123.5 29.5,123.5C 29.5,117.5 29.5,111.5 29.5,105.5C 32.5,105.5 35.5,105.5 38.5,105.5C 39.4794,102.375 39.8128,99.0419 39.5,95.5 Z"/></g>
<g><path style="opacity:1" fill="#d77354" d="M 47.5,123.5 C 47.5,126.167 47.5,128.833 47.5,131.5C 44.8333,131.5 42.1667,131.5 39.5,131.5C 39.5,128.833 39.5,126.167 39.5,123.5C 42.1667,123.5 44.8333,123.5 47.5,123.5 Z"/></g>
<g><path style="opacity:1" fill="#312c2d" d="M 48.5,124.5 C 48.5,124.167 48.5,123.833 48.5,123.5C 51.5,123.5 54.5,123.5 57.5,123.5C 60.1667,123.5 62.8333,123.5 65.5,123.5C 65.5,126.5 65.5,129.5 65.5,132.5C 59.8333,132.5 54.1667,132.5 48.5,132.5C 48.5,132.167 48.5,131.833 48.5,131.5C 51.1667,131.5 53.8333,131.5 56.5,131.5C 56.5,129.167 56.5,126.833 56.5,124.5C 53.8333,124.5 51.1667,124.5 48.5,124.5 Z"/></g>
<g><path style="opacity:1" fill="#505050" d="M 65.5,123.5 C 71.5,123.5 77.5,123.5 83.5,123.5C 83.5,126.5 83.5,129.5 83.5,132.5C 77.5,132.5 71.5,132.5 65.5,132.5C 65.5,129.5 65.5,126.5 65.5,123.5 Z"/></g>
<g><path style="opacity:1" fill="#515151" d="M 110.5,124.5 C 110.5,124.167 110.5,123.833 110.5,123.5C 110.833,123.5 111.167,123.5 111.5,123.5C 120.167,123.5 128.833,123.5 137.5,123.5C 137.5,126.167 137.5,128.833 137.5,131.5C 137.5,131.833 137.5,132.167 137.5,132.5C 134.5,132.5 131.5,132.5 128.5,132.5C 122.833,132.5 117.167,132.5 111.5,132.5C 111.806,129.615 111.473,126.948 110.5,124.5 Z"/></g>
<g><path style="opacity:0.915" fill="#7c2e2e" d="M 28.5,105.5 C 28.8333,105.5 29.1667,105.5 29.5,105.5C 29.5,111.5 29.5,117.5 29.5,123.5C 26.8333,123.5 24.1667,123.5 21.5,123.5C 20.5064,132.652 20.1731,141.985 20.5,151.5C 17.5,151.5 14.5,151.5 11.5,151.5C 11.5,141.833 11.5,132.167 11.5,122.5C 14.5,122.5 17.5,122.5 20.5,122.5C 20.5,116.833 20.5,111.167 20.5,105.5C 23.1667,105.5 25.8333,105.5 28.5,105.5 Z"/></g>
<g><path style="opacity:1" fill="#141515" d="M 110.5,124.5 C 110.5,126.833 110.5,129.167 110.5,131.5C 104.642,131.178 98.9753,131.511 93.5,132.5C 93.1667,132.5 92.8333,132.5 92.5,132.5C 89.8333,132.5 87.1667,132.5 84.5,132.5C 84.5,129.833 84.5,127.167 84.5,124.5C 93.1667,124.5 101.833,124.5 110.5,124.5 Z"/></g>
<g><path style="opacity:1" fill="#181818" d="M 137.5,123.5 C 140.5,123.5 143.5,123.5 146.5,123.5C 146.5,126.167 146.5,128.833 146.5,131.5C 143.5,131.5 140.5,131.5 137.5,131.5C 137.5,128.833 137.5,126.167 137.5,123.5 Z"/></g>
<g><path style="opacity:1" fill="#111314" d="M 48.5,124.5 C 51.1667,124.5 53.8333,124.5 56.5,124.5C 56.5,126.833 56.5,129.167 56.5,131.5C 53.8333,131.5 51.1667,131.5 48.5,131.5C 48.5,129.167 48.5,126.833 48.5,124.5 Z"/></g>
<g><path style="opacity:1" fill="#96533f" d="M 47.5,123.5 C 47.8333,123.5 48.1667,123.5 48.5,123.5C 48.5,123.833 48.5,124.167 48.5,124.5C 48.5,126.833 48.5,129.167 48.5,131.5C 48.5,131.833 48.5,132.167 48.5,132.5C 45.5,132.5 42.5,132.5 39.5,132.5C 39.5,132.167 39.5,131.833 39.5,131.5C 42.1667,131.5 44.8333,131.5 47.5,131.5C 47.5,128.833 47.5,126.167 47.5,123.5 Z"/></g>
<g><path style="opacity:1" fill="#413937" d="M 57.5,115.5 C 57.5,115.167 57.5,114.833 57.5,114.5C 60.1667,114.5 62.8333,114.5 65.5,114.5C 71.8333,114.5 78.1667,114.5 84.5,114.5C 84.5,117.167 84.5,119.833 84.5,122.5C 92.9839,123.493 101.651,123.826 110.5,123.5C 110.5,123.833 110.5,124.167 110.5,124.5C 101.833,124.5 93.1667,124.5 84.5,124.5C 84.5,127.167 84.5,129.833 84.5,132.5C 87.1667,132.5 89.8333,132.5 92.5,132.5C 92.5,132.833 92.5,133.167 92.5,133.5C 89.8333,133.5 87.1667,133.5 84.5,133.5C 84.5,136.5 84.5,139.5 84.5,142.5C 81.5,142.5 78.5,142.5 75.5,142.5C 75.5,147.833 75.5,153.167 75.5,158.5C 78.3854,158.194 81.0521,158.527 83.5,159.5C 80.5,159.5 77.5,159.5 74.5,159.5C 74.5,153.5 74.5,147.5 74.5,141.5C 77.5,141.5 80.5,141.5 83.5,141.5C 83.5,138.833 83.5,136.167 83.5,133.5C 78.1667,133.5 72.8333,133.5 67.5,133.5C 67.8222,139.358 67.4889,145.025 66.5,150.5C 66.7886,144.409 66.4553,138.409 65.5,132.5C 71.5,132.5 77.5,132.5 83.5,132.5C 83.5,129.5 83.5,126.5 83.5,123.5C 83.5,120.833 83.5,118.167 83.5,115.5C 74.8333,115.5 66.1667,115.5 57.5,115.5 Z"/></g>
<g><path style="opacity:1" fill="#3b3939" d="M 110.5,124.5 C 111.473,126.948 111.806,129.615 111.5,132.5C 117.167,132.5 122.833,132.5 128.5,132.5C 128.5,132.833 128.5,133.167 128.5,133.5C 123.167,133.5 117.833,133.5 112.5,133.5C 112.5,135.833 112.5,138.167 112.5,140.5C 115.167,140.5 117.833,140.5 120.5,140.5C 120.5,146.833 120.5,153.167 120.5,159.5C 117.5,159.5 114.5,159.5 111.5,159.5C 111.167,159.5 110.833,159.5 110.5,159.5C 113.287,158.523 116.287,158.19 119.5,158.5C 119.5,153.167 119.5,147.833 119.5,142.5C 116.813,142.664 114.146,142.497 111.5,142C 110.556,139.281 110.223,136.448 110.5,133.5C 107.43,133.632 104.43,133.299 101.5,132.5C 98.8333,132.5 96.1667,132.5 93.5,132.5C 98.9753,131.511 104.642,131.178 110.5,131.5C 110.5,129.167 110.5,126.833 110.5,124.5 Z"/></g>
<g><path style="opacity:1" fill="#822c53" d="M 48.5,133.5 C 48.5,133.167 48.5,132.833 48.5,132.5C 54.1667,132.5 59.8333,132.5 65.5,132.5C 66.4553,138.409 66.7886,144.409 66.5,150.5C 66.1667,150.5 65.8333,150.5 65.5,150.5C 65.5,147.5 65.5,144.5 65.5,141.5C 62.8333,141.5 60.1667,141.5 57.5,141.5C 57.5,138.833 57.5,136.167 57.5,133.5C 54.5,133.5 51.5,133.5 48.5,133.5 Z"/></g>
<g><path style="opacity:1" fill="#2e2e2e" d="M 74.5,159.5 C 71.5,159.5 68.5,159.5 65.5,159.5C 65.5,156.833 65.5,154.167 65.5,151.5C 62.8333,151.5 60.1667,151.5 57.5,151.5C 57.5,151.167 57.5,150.833 57.5,150.5C 60.1667,150.5 62.8333,150.5 65.5,150.5C 65.8333,150.5 66.1667,150.5 66.5,150.5C 67.4889,145.025 67.8222,139.358 67.5,133.5C 72.8333,133.5 78.1667,133.5 83.5,133.5C 83.5,136.167 83.5,138.833 83.5,141.5C 80.5,141.5 77.5,141.5 74.5,141.5C 74.5,147.5 74.5,153.5 74.5,159.5 Z"/></g>
<g><path style="opacity:1" fill="#535252" d="M 92.5,133.5 C 92.5,142.167 92.5,150.833 92.5,159.5C 89.8333,159.5 87.1667,159.5 84.5,159.5C 84.1667,159.5 83.8333,159.5 83.5,159.5C 81.0521,158.527 78.3854,158.194 75.5,158.5C 75.5,153.167 75.5,147.833 75.5,142.5C 78.5,142.5 81.5,142.5 84.5,142.5C 84.5,139.5 84.5,136.5 84.5,133.5C 87.1667,133.5 89.8333,133.5 92.5,133.5 Z"/></g>
<g><path style="opacity:1" fill="#2e2d2d" d="M 128.5,133.5 C 128.178,139.358 128.511,145.025 129.5,150.5C 132.167,150.5 134.833,150.5 137.5,150.5C 137.5,150.833 137.5,151.167 137.5,151.5C 134.833,151.5 132.167,151.5 129.5,151.5C 129.806,154.385 129.473,157.052 128.5,159.5C 125.833,159.5 123.167,159.5 120.5,159.5C 120.5,153.167 120.5,146.833 120.5,140.5C 117.833,140.5 115.167,140.5 112.5,140.5C 112.5,138.167 112.5,135.833 112.5,133.5C 117.833,133.5 123.167,133.5 128.5,133.5 Z"/></g>
<g><path style="opacity:1" fill="#8e2c58" d="M 137.5,132.5 C 140.713,132.19 143.713,132.523 146.5,133.5C 143.833,133.5 141.167,133.5 138.5,133.5C 138.5,135.833 138.5,138.167 138.5,140.5C 141.167,140.5 143.833,140.5 146.5,140.5C 146.5,140.833 146.5,141.167 146.5,141.5C 143.5,141.5 140.5,141.5 137.5,141.5C 134.833,141.5 132.167,141.5 129.5,141.5C 129.5,138.833 129.5,136.167 129.5,133.5C 132.385,133.806 135.052,133.473 137.5,132.5 Z"/></g>
<g><path style="opacity:1" fill="#693735" d="M 39.5,132.5 C 42.5,132.5 45.5,132.5 48.5,132.5C 48.5,132.833 48.5,133.167 48.5,133.5C 48.5,136.167 48.5,138.833 48.5,141.5C 47.5269,139.052 47.1936,136.385 47.5,133.5C 45.1667,133.5 42.8333,133.5 40.5,133.5C 39.5111,138.975 39.1778,144.642 39.5,150.5C 38.5233,147.713 38.19,144.713 38.5,141.5C 38.19,138.287 38.5233,135.287 39.5,132.5 Z"/></g>
<g><path style="opacity:1" fill="#d0466e" d="M 48.5,133.5 C 51.5,133.5 54.5,133.5 57.5,133.5C 57.5,136.167 57.5,138.833 57.5,141.5C 54.5,141.5 51.5,141.5 48.5,141.5C 48.5,138.833 48.5,136.167 48.5,133.5 Z"/></g>
<g><path style="opacity:1" fill="#545353" d="M 101.5,133.5 C 101.5,133.167 101.5,132.833 101.5,132.5C 104.43,133.299 107.43,133.632 110.5,133.5C 110.223,136.448 110.556,139.281 111.5,142C 114.146,142.497 116.813,142.664 119.5,142.5C 119.5,147.833 119.5,153.167 119.5,158.5C 116.287,158.19 113.287,158.523 110.5,159.5C 107.833,159.5 105.167,159.5 102.5,159.5C 102.826,150.651 102.493,141.984 101.5,133.5 Z"/></g>
<g><path style="opacity:1" fill="#653248" d="M 128.5,132.5 C 131.5,132.5 134.5,132.5 137.5,132.5C 135.052,133.473 132.385,133.806 129.5,133.5C 129.5,136.167 129.5,138.833 129.5,141.5C 129.5,144.5 129.5,147.5 129.5,150.5C 128.511,145.025 128.178,139.358 128.5,133.5C 128.5,133.167 128.5,132.833 128.5,132.5 Z"/></g>
<g><path style="opacity:1" fill="#d6496f" d="M 101.5,133.5 C 101.5,136.167 101.5,138.833 101.5,141.5C 98.8333,141.5 96.1667,141.5 93.5,141.5C 93.5,138.833 93.5,136.167 93.5,133.5C 96.1667,133.5 98.8333,133.5 101.5,133.5 Z"/></g>
<g><path style="opacity:1" fill="#6c313b" d="M 146.5,123.5 C 147.473,125.948 147.806,128.615 147.5,131.5C 147.5,131.833 147.5,132.167 147.5,132.5C 147.5,135.5 147.5,138.5 147.5,141.5C 147.167,141.5 146.833,141.5 146.5,141.5C 146.5,141.167 146.5,140.833 146.5,140.5C 146.5,138.167 146.5,135.833 146.5,133.5C 143.713,132.523 140.713,132.19 137.5,132.5C 137.5,132.167 137.5,131.833 137.5,131.5C 140.5,131.5 143.5,131.5 146.5,131.5C 146.5,128.833 146.5,126.167 146.5,123.5 Z"/></g>
<g><path style="opacity:1" fill="#d64870" d="M 146.5,133.5 C 146.5,135.833 146.5,138.167 146.5,140.5C 143.833,140.5 141.167,140.5 138.5,140.5C 138.5,138.167 138.5,135.833 138.5,133.5C 141.167,133.5 143.833,133.5 146.5,133.5 Z"/></g>
<g><path style="opacity:1" fill="#402923" d="M 147.5,132.5 C 150.5,132.5 153.5,132.5 156.5,132.5C 156.5,135.5 156.5,138.5 156.5,141.5C 153.5,141.5 150.5,141.5 147.5,141.5C 147.5,138.5 147.5,135.5 147.5,132.5 Z"/></g>
<g><path style="opacity:1" fill="#101313" d="M 148.5,133.5 C 150.833,133.5 153.167,133.5 155.5,133.5C 155.5,135.833 155.5,138.167 155.5,140.5C 153.167,140.5 150.833,140.5 148.5,140.5C 148.5,138.167 148.5,135.833 148.5,133.5 Z"/></g>
<g><path style="opacity:1" fill="#d27252" d="M 38.5,141.5 C 38.19,144.713 38.5233,147.713 39.5,150.5C 45.1667,150.5 50.8333,150.5 56.5,150.5C 56.5,153.5 56.5,156.5 56.5,159.5C 53.8333,159.5 51.1667,159.5 48.5,159.5C 48.5,156.833 48.5,154.167 48.5,151.5C 45.5,151.5 42.5,151.5 39.5,151.5C 39.5,154.167 39.5,156.833 39.5,159.5C 39.1667,159.5 38.8333,159.5 38.5,159.5C 35.8333,159.5 33.1667,159.5 30.5,159.5C 30.81,156.287 30.4767,153.287 29.5,150.5C 29.5,150.167 29.5,149.833 29.5,149.5C 29.5,146.833 29.5,144.167 29.5,141.5C 32.5,141.5 35.5,141.5 38.5,141.5 Z"/></g>
<g><path style="opacity:1" fill="#995259" d="M 92.5,132.5 C 92.8333,132.5 93.1667,132.5 93.5,132.5C 96.1667,132.5 98.8333,132.5 101.5,132.5C 101.5,132.833 101.5,133.167 101.5,133.5C 98.8333,133.5 96.1667,133.5 93.5,133.5C 93.5,136.167 93.5,138.833 93.5,141.5C 93.5,147.5 93.5,153.5 93.5,159.5C 93.1667,159.5 92.8333,159.5 92.5,159.5C 92.5,150.833 92.5,142.167 92.5,133.5C 92.5,133.167 92.5,132.833 92.5,132.5 Z"/></g>
<g><path style="opacity:1" fill="#ee5f60" d="M 93.5,141.5 C 96.1667,141.5 98.8333,141.5 101.5,141.5C 101.5,147.5 101.5,153.5 101.5,159.5C 98.8333,159.5 96.1667,159.5 93.5,159.5C 93.5,153.5 93.5,147.5 93.5,141.5 Z"/></g>
<g><path style="opacity:1" fill="#682a3b" d="M 137.5,141.5 C 140.5,141.5 143.5,141.5 146.5,141.5C 146.5,141.833 146.5,142.167 146.5,142.5C 143.833,142.5 141.167,142.5 138.5,142.5C 138.5,145.167 138.5,147.833 138.5,150.5C 138.167,150.5 137.833,150.5 137.5,150.5C 137.5,147.5 137.5,144.5 137.5,141.5 Z"/></g>
<g><path style="opacity:1" fill="#121314" d="M 40.5,133.5 C 42.8333,133.5 45.1667,133.5 47.5,133.5C 47.1936,136.385 47.5269,139.052 48.5,141.5C 50.9479,142.473 53.6146,142.806 56.5,142.5C 56.5,144.833 56.5,147.167 56.5,149.5C 51.1667,149.5 45.8333,149.5 40.5,149.5C 40.5,144.167 40.5,138.833 40.5,133.5 Z"/></g>
<g><path style="opacity:1" fill="#181616" d="M 146.5,142.5 C 146.5,145.167 146.5,147.833 146.5,150.5C 143.833,150.5 141.167,150.5 138.5,150.5C 138.5,147.833 138.5,145.167 138.5,142.5C 141.167,142.5 143.833,142.5 146.5,142.5 Z"/></g>
<g><path style="opacity:1" fill="#cb456b" d="M 57.5,141.5 C 60.1667,141.5 62.8333,141.5 65.5,141.5C 65.5,144.5 65.5,147.5 65.5,150.5C 62.8333,150.5 60.1667,150.5 57.5,150.5C 57.5,147.5 57.5,144.5 57.5,141.5 Z"/></g>
<g><path style="opacity:1" fill="#cb456c" d="M 129.5,141.5 C 132.167,141.5 134.833,141.5 137.5,141.5C 137.5,144.5 137.5,147.5 137.5,150.5C 134.833,150.5 132.167,150.5 129.5,150.5C 129.5,147.5 129.5,144.5 129.5,141.5 Z"/></g>
<g><path style="opacity:1" fill="#2f221e" d="M 40.5,133.5 C 40.5,138.833 40.5,144.167 40.5,149.5C 45.8333,149.5 51.1667,149.5 56.5,149.5C 56.5,149.833 56.5,150.167 56.5,150.5C 50.8333,150.5 45.1667,150.5 39.5,150.5C 39.1778,144.642 39.5111,138.975 40.5,133.5 Z"/></g>
<g><path style="opacity:1" fill="#d18655" d="M 147.5,141.5 C 150.5,141.5 153.5,141.5 156.5,141.5C 156.5,144.5 156.5,147.5 156.5,150.5C 153.5,150.5 150.5,150.5 147.5,150.5C 147.5,147.5 147.5,144.5 147.5,141.5 Z"/></g>
<g><path style="opacity:1" fill="#f4a363" d="M 148.5,142.5 C 150.5,142.5 152.5,142.5 154.5,142.5C 154.5,144.833 154.5,147.167 154.5,149.5C 152.5,149.5 150.5,149.5 148.5,149.5C 148.5,147.167 148.5,144.833 148.5,142.5 Z"/></g>
<g><path style="opacity:1" fill="#934e39" d="M 146.5,141.5 C 146.833,141.5 147.167,141.5 147.5,141.5C 147.5,144.5 147.5,147.5 147.5,150.5C 150.5,150.5 153.5,150.5 156.5,150.5C 156.5,151.167 156.833,151.5 157.5,151.5C 158.117,157.598 157.45,163.265 155.5,168.5C 152.615,168.806 149.948,168.473 147.5,167.5C 150.167,167.5 152.833,167.5 155.5,167.5C 155.5,162.167 155.5,156.833 155.5,151.5C 152.833,151.5 150.167,151.5 147.5,151.5C 147.5,154.167 147.5,156.833 147.5,159.5C 147.167,159.5 146.833,159.5 146.5,159.5C 146.5,156.833 146.5,154.167 146.5,151.5C 143.833,151.5 141.167,151.5 138.5,151.5C 138.5,154.167 138.5,156.833 138.5,159.5C 138.5,162.5 138.5,165.5 138.5,168.5C 138.167,168.5 137.833,168.5 137.5,168.5C 137.5,162.833 137.5,157.167 137.5,151.5C 137.5,151.167 137.5,150.833 137.5,150.5C 137.833,150.5 138.167,150.5 138.5,150.5C 141.167,150.5 143.833,150.5 146.5,150.5C 146.5,147.833 146.5,145.167 146.5,142.5C 146.5,142.167 146.5,141.833 146.5,141.5 Z"/></g>
<g><path style="opacity:1" fill="#af5b43" d="M 21.5,123.5 C 21.5,132.5 21.5,141.5 21.5,150.5C 24.1667,150.5 26.8333,150.5 29.5,150.5C 30.4767,153.287 30.81,156.287 30.5,159.5C 29.5269,157.052 29.1936,154.385 29.5,151.5C 26.5,151.5 23.5,151.5 20.5,151.5C 20.1731,141.985 20.5064,132.652 21.5,123.5 Z"/></g>
<g><path style="opacity:0.982" fill="#7e302f" d="M 20.5,151.5 C 23.5,151.5 26.5,151.5 29.5,151.5C 29.1936,154.385 29.5269,157.052 30.5,159.5C 33.1667,159.5 35.8333,159.5 38.5,159.5C 38.5,162.5 38.5,165.5 38.5,168.5C 35.8333,168.5 33.1667,168.5 30.5,168.5C 28.6122,166.012 27.9455,163.012 28.5,159.5C 25.8333,159.5 23.1667,159.5 20.5,159.5C 20.5,156.833 20.5,154.167 20.5,151.5 Z"/></g>
<g><path style="opacity:1" fill="#ee9d61" d="M 48.5,159.5 C 47.5269,161.948 47.1936,164.615 47.5,167.5C 44.8333,167.5 42.1667,167.5 39.5,167.5C 39.5,164.833 39.5,162.167 39.5,159.5C 39.5,156.833 39.5,154.167 39.5,151.5C 42.5,151.5 45.5,151.5 48.5,151.5C 48.5,154.167 48.5,156.833 48.5,159.5 Z"/></g>
<g><path style="opacity:1" fill="#161616" d="M 57.5,151.5 C 60.1667,151.5 62.8333,151.5 65.5,151.5C 65.5,154.167 65.5,156.833 65.5,159.5C 68.5,159.5 71.5,159.5 74.5,159.5C 77.5,159.5 80.5,159.5 83.5,159.5C 83.5,162.5 83.5,165.5 83.5,168.5C 80.5,168.5 77.5,168.5 74.5,168.5C 71.5,168.5 68.5,168.5 65.5,168.5C 65.5,171.167 65.5,173.833 65.5,176.5C 62.5,176.5 59.5,176.5 56.5,176.5C 56.5,174.5 56.5,172.5 56.5,170.5C 56.5,170.167 56.5,169.833 56.5,169.5C 57.4896,163.69 57.8229,157.69 57.5,151.5 Z"/></g>
<g><path style="opacity:1" fill="#141415" d="M 137.5,151.5 C 137.5,157.167 137.5,162.833 137.5,168.5C 137.5,171.167 137.5,173.833 137.5,176.5C 134.833,176.5 132.167,176.5 129.5,176.5C 129.5,173.5 129.5,170.5 129.5,167.5C 123.833,167.5 118.167,167.5 112.5,167.5C 112.5,165.167 112.5,162.833 112.5,160.5C 118.026,160.821 123.36,160.488 128.5,159.5C 129.473,157.052 129.806,154.385 129.5,151.5C 132.167,151.5 134.833,151.5 137.5,151.5 Z"/></g>
<g><path style="opacity:1" fill="#7c2e2e" d="M 147.5,167.5 C 147.5,164.833 147.5,162.167 147.5,159.5C 147.5,156.833 147.5,154.167 147.5,151.5C 150.167,151.5 152.833,151.5 155.5,151.5C 155.5,156.833 155.5,162.167 155.5,167.5C 152.833,167.5 150.167,167.5 147.5,167.5 Z"/></g>
<g><path style="opacity:1" fill="#d77354" d="M 146.5,159.5 C 143.833,159.5 141.167,159.5 138.5,159.5C 138.5,156.833 138.5,154.167 138.5,151.5C 141.167,151.5 143.833,151.5 146.5,151.5C 146.5,154.167 146.5,156.833 146.5,159.5 Z"/></g>
<g><path style="opacity:1" fill="#1e1c1b" d="M 111.5,159.5 C 114.5,159.5 117.5,159.5 120.5,159.5C 123.167,159.5 125.833,159.5 128.5,159.5C 123.36,160.488 118.026,160.821 112.5,160.5C 112.5,162.833 112.5,165.167 112.5,167.5C 118.167,167.5 123.833,167.5 129.5,167.5C 129.5,170.5 129.5,173.5 129.5,176.5C 129.5,177.167 129.5,177.833 129.5,178.5C 129.5,181.5 129.5,184.5 129.5,187.5C 123.5,187.5 117.5,187.5 111.5,187.5C 111.5,184.5 111.5,181.5 111.5,178.5C 117.075,177.548 122.741,177.214 128.5,177.5C 128.5,174.833 128.5,172.167 128.5,169.5C 122.839,169.093 117.172,168.76 111.5,168.5C 111.5,165.5 111.5,162.5 111.5,159.5 Z"/></g>
<g><path style="opacity:1" fill="#eb9b60" d="M 138.5,159.5 C 141.167,159.5 143.833,159.5 146.5,159.5C 146.5,162.5 146.5,165.5 146.5,168.5C 143.833,168.5 141.167,168.5 138.5,168.5C 138.5,165.5 138.5,162.5 138.5,159.5 Z"/></g>
<g><path style="opacity:1" fill="#7c2e2e" d="M 48.5,159.5 C 51.1667,159.5 53.8333,159.5 56.5,159.5C 56.5,162.167 56.5,164.833 56.5,167.5C 53.8333,167.5 51.1667,167.5 48.5,167.5C 48.5,164.833 48.5,162.167 48.5,159.5 Z"/></g>
<g><path style="opacity:1" fill="#5d2c2e" d="M 48.5,141.5 C 51.5,141.5 54.5,141.5 57.5,141.5C 57.5,144.5 57.5,147.5 57.5,150.5C 57.5,150.833 57.5,151.167 57.5,151.5C 57.8229,157.69 57.4896,163.69 56.5,169.5C 56.5,168.833 56.5,168.167 56.5,167.5C 56.5,164.833 56.5,162.167 56.5,159.5C 56.5,156.5 56.5,153.5 56.5,150.5C 56.5,150.167 56.5,149.833 56.5,149.5C 56.5,147.167 56.5,144.833 56.5,142.5C 53.6146,142.806 50.9479,142.473 48.5,141.5 Z"/></g>
<g><path style="opacity:1" fill="#a3435c" d="M 101.5,133.5 C 102.493,141.984 102.826,150.651 102.5,159.5C 105.167,159.5 107.833,159.5 110.5,159.5C 110.833,159.5 111.167,159.5 111.5,159.5C 111.5,162.5 111.5,165.5 111.5,168.5C 111.167,168.5 110.833,168.5 110.5,168.5C 107.5,168.5 104.5,168.5 101.5,168.5C 101.5,165.833 101.5,163.167 101.5,160.5C 98.8333,160.5 96.1667,160.5 93.5,160.5C 93.3367,162.857 93.5034,165.19 94,167.5C 94.3826,168.056 94.8826,168.389 95.5,168.5C 95.5,169.833 94.8333,170.5 93.5,170.5C 93.5,169.833 93.1667,169.5 92.5,169.5C 89.8333,168.833 87.1667,168.167 84.5,167.5C 87.1667,167.5 89.8333,167.5 92.5,167.5C 92.5,165.167 92.5,162.833 92.5,160.5C 89.8333,160.5 87.1667,160.5 84.5,160.5C 84.5,160.167 84.5,159.833 84.5,159.5C 87.1667,159.5 89.8333,159.5 92.5,159.5C 92.8333,159.5 93.1667,159.5 93.5,159.5C 96.1667,159.5 98.8333,159.5 101.5,159.5C 101.5,153.5 101.5,147.5 101.5,141.5C 101.5,138.833 101.5,136.167 101.5,133.5 Z"/></g>
<g><path style="opacity:1" fill="#d4476f" d="M 102.5,160.5 C 105.167,160.5 107.833,160.5 110.5,160.5C 110.5,162.833 110.5,165.167 110.5,167.5C 107.833,167.5 105.167,167.5 102.5,167.5C 102.5,165.167 102.5,162.833 102.5,160.5 Z"/></g>
<g><path style="opacity:1" fill="#d54870" d="M 84.5,160.5 C 87.1667,160.5 89.8333,160.5 92.5,160.5C 92.5,162.833 92.5,165.167 92.5,167.5C 89.8333,167.5 87.1667,167.5 84.5,167.5C 84.5,165.167 84.5,162.833 84.5,160.5 Z"/></g>
<g><path style="opacity:1" fill="#842557" d="M 101.5,168.5 C 101.167,168.5 100.833,168.5 100.5,168.5C 98.8333,168.5 97.1667,168.5 95.5,168.5C 94.8826,168.389 94.3826,168.056 94,167.5C 93.5034,165.19 93.3367,162.857 93.5,160.5C 96.1667,160.5 98.8333,160.5 101.5,160.5C 101.5,163.167 101.5,165.833 101.5,168.5 Z"/></g>
<g><path style="opacity:0.406" fill="#b2643d" d="M 38.5,159.5 C 38.8333,159.5 39.1667,159.5 39.5,159.5C 39.5,162.167 39.5,164.833 39.5,167.5C 42.1667,167.5 44.8333,167.5 47.5,167.5C 47.1936,164.615 47.5269,161.948 48.5,159.5C 48.5,162.167 48.5,164.833 48.5,167.5C 51.1667,167.5 53.8333,167.5 56.5,167.5C 56.5,168.167 56.5,168.833 56.5,169.5C 56.5,169.833 56.5,170.167 56.5,170.5C 54.1667,170.5 51.8333,170.5 49.5,170.5C 49.0825,169.778 48.4158,169.278 47.5,169C 44.854,168.503 42.1873,168.336 39.5,168.5C 39.81,171.713 39.4767,174.713 38.5,177.5C 37.5318,175.393 37.1984,173.059 37.5,170.5C 34.6122,171.01 32.2789,170.344 30.5,168.5C 33.1667,168.5 35.8333,168.5 38.5,168.5C 38.5,165.5 38.5,162.5 38.5,159.5 Z"/></g>
<g><path style="opacity:1" fill="#582836" d="M 83.5,159.5 C 83.8333,159.5 84.1667,159.5 84.5,159.5C 84.5,159.833 84.5,160.167 84.5,160.5C 84.5,162.833 84.5,165.167 84.5,167.5C 87.1667,168.167 89.8333,168.833 92.5,169.5C 89.8333,169.5 87.1667,169.5 84.5,169.5C 83.8333,169.5 83.5,169.167 83.5,168.5C 83.5,165.5 83.5,162.5 83.5,159.5 Z"/></g>
<g><path style="opacity:0.363" fill="#af603c" d="M 146.5,159.5 C 146.833,159.5 147.167,159.5 147.5,159.5C 147.5,162.167 147.5,164.833 147.5,167.5C 149.948,168.473 152.615,168.806 155.5,168.5C 153.721,170.344 151.388,171.01 148.5,170.5C 148.802,173.059 148.468,175.393 147.5,177.5C 146.527,175.052 146.194,172.385 146.5,169.5C 143.615,169.806 140.948,169.473 138.5,168.5C 141.167,168.5 143.833,168.5 146.5,168.5C 146.5,165.5 146.5,162.5 146.5,159.5 Z"/></g>
<g><path style="opacity:1" fill="#2d2c2c" d="M 74.5,168.5 C 74.5,171.5 74.5,174.5 74.5,177.5C 71.9407,177.198 69.6074,177.532 67.5,178.5C 67.1667,178.5 66.8333,178.5 66.5,178.5C 66.1667,177.833 65.8333,177.167 65.5,176.5C 65.5,173.833 65.5,171.167 65.5,168.5C 68.5,168.5 71.5,168.5 74.5,168.5 Z"/></g>
<g><path style="opacity:1" fill="#323232" d="M 110.5,168.5 C 110.833,168.5 111.167,168.5 111.5,168.5C 117.172,168.76 122.839,169.093 128.5,169.5C 128.5,172.167 128.5,174.833 128.5,177.5C 122.741,177.214 117.075,177.548 111.5,178.5C 111.167,177.833 110.833,177.167 110.5,176.5C 110.5,174.167 110.5,171.833 110.5,169.5C 110.5,169.167 110.5,168.833 110.5,168.5 Z"/></g>
<g><path style="opacity:1" fill="#535353" d="M 111.5,169.5 C 114.167,169.5 116.833,169.5 119.5,169.5C 119.5,171.833 119.5,174.167 119.5,176.5C 116.833,176.5 114.167,176.5 111.5,176.5C 111.5,174.167 111.5,171.833 111.5,169.5 Z"/></g>
<g><path style="opacity:1" fill="#131414" d="M 84.5,169.5 C 87.1667,169.5 89.8333,169.5 92.5,169.5C 93.1667,169.5 93.5,169.833 93.5,170.5C 93.5,172.5 93.5,174.5 93.5,176.5C 90.5,176.5 87.5,176.5 84.5,176.5C 84.5,174.167 84.5,171.833 84.5,169.5 Z"/></g>
<g><path style="opacity:1" fill="#732c2c" d="M 137.5,168.5 C 137.833,168.5 138.167,168.5 138.5,168.5C 140.948,169.473 143.615,169.806 146.5,169.5C 146.194,172.385 146.527,175.052 147.5,177.5C 144.375,178.479 141.042,178.813 137.5,178.5C 137.5,177.833 137.5,177.167 137.5,176.5C 137.5,173.833 137.5,171.167 137.5,168.5 Z"/></g>
<g><path style="opacity:0.386" fill="#934535" d="M 49.5,170.5 C 49.5,173.167 49.5,175.833 49.5,178.5C 45.6286,178.815 41.9619,178.482 38.5,177.5C 39.4767,174.713 39.81,171.713 39.5,168.5C 42.1873,168.336 44.854,168.503 47.5,169C 48.4158,169.278 49.0825,169.778 49.5,170.5 Z"/></g>
<g><path style="opacity:1" fill="#772a2d" d="M 40.5,169.5 C 42.5,169.5 44.5,169.5 46.5,169.5C 46.5,171.833 46.5,174.167 46.5,176.5C 44.5,176.5 42.5,176.5 40.5,176.5C 40.5,174.167 40.5,171.833 40.5,169.5 Z"/></g>
<g><path style="opacity:1" fill="#0f1213" d="M 110.5,169.5 C 110.5,171.833 110.5,174.167 110.5,176.5C 108.167,176.5 105.833,176.5 103.5,176.5C 103.5,174.167 103.5,171.833 103.5,169.5C 105.833,169.5 108.167,169.5 110.5,169.5 Z"/></g>
<g><path style="opacity:1" fill="#494949" d="M 74.5,168.5 C 77.5,168.5 80.5,168.5 83.5,168.5C 83.5,169.167 83.8333,169.5 84.5,169.5C 84.5,171.833 84.5,174.167 84.5,176.5C 84.5,177.167 84.1667,177.5 83.5,177.5C 80.5,177.5 77.5,177.5 74.5,177.5C 74.5,174.5 74.5,171.5 74.5,168.5 Z"/></g>
<g><path style="opacity:1" fill="#463123" d="M 100.5,168.5 C 100.833,168.5 101.167,168.5 101.5,168.5C 104.5,168.5 107.5,168.5 110.5,168.5C 110.5,168.833 110.5,169.167 110.5,169.5C 108.167,169.5 105.833,169.5 103.5,169.5C 103.5,171.833 103.5,174.167 103.5,176.5C 105.833,176.5 108.167,176.5 110.5,176.5C 110.833,177.167 111.167,177.833 111.5,178.5C 110.833,178.5 110.167,178.5 109.5,178.5C 106.5,178.5 103.5,178.5 100.5,178.5C 100.5,175.167 100.5,171.833 100.5,168.5 Z"/></g>
<g><path style="opacity:0.432" fill="#453321" d="M 56.5,176.5 C 59.5,176.5 62.5,176.5 65.5,176.5C 65.8333,177.167 66.1667,177.833 66.5,178.5C 66.5,181.5 66.5,184.5 66.5,187.5C 64.6122,185.012 63.9455,182.012 64.5,178.5C 61.3019,179.036 58.6353,178.369 56.5,176.5 Z"/></g>
<g><path style="opacity:0.445" fill="#463321" d="M 84.5,176.5 C 87.5,176.5 90.5,176.5 93.5,176.5C 91.3647,178.369 88.6981,179.036 85.5,178.5C 86.0545,182.012 85.3878,185.012 83.5,187.5C 83.5,184.167 83.5,180.833 83.5,177.5C 84.1667,177.5 84.5,177.167 84.5,176.5 Z"/></g>
<g><path style="opacity:0.486" fill="#433220" d="M 129.5,176.5 C 132.167,176.5 134.833,176.5 137.5,176.5C 137.5,177.167 137.5,177.833 137.5,178.5C 134.833,178.5 132.167,178.5 129.5,178.5C 129.5,177.833 129.5,177.167 129.5,176.5 Z"/></g>
<g><path style="opacity:1" fill="#131415" d="M 74.5,177.5 C 76.9479,178.473 79.6146,178.806 82.5,178.5C 82.5,180.833 82.5,183.167 82.5,185.5C 77.5,185.5 72.5,185.5 67.5,185.5C 67.5,183.167 67.5,180.833 67.5,178.5C 69.6074,177.532 71.9407,177.198 74.5,177.5 Z"/></g>
<g><path style="opacity:0.61" fill="#7f572c" d="M 109.5,178.5 C 110.167,178.5 110.833,178.5 111.5,178.5C 111.5,181.5 111.5,184.5 111.5,187.5C 109.612,185.012 108.945,182.012 109.5,178.5 Z"/></g>
<g><path style="opacity:0.59" fill="#27221b" d="M 74.5,177.5 C 77.5,177.5 80.5,177.5 83.5,177.5C 83.5,180.833 83.5,184.167 83.5,187.5C 77.8333,187.5 72.1667,187.5 66.5,187.5C 66.5,184.5 66.5,181.5 66.5,178.5C 66.8333,178.5 67.1667,178.5 67.5,178.5C 67.5,180.833 67.5,183.167 67.5,185.5C 72.5,185.5 77.5,185.5 82.5,185.5C 82.5,183.167 82.5,180.833 82.5,178.5C 79.6146,178.806 76.9479,178.473 74.5,177.5 Z"/></g>
</svg>
