<?xml version="1.0" encoding="UTF-8"?>
<!DOCTYPE svg PUBLIC "-//W3C//DTD SVG 1.1//EN" "http://www.w3.org/Graphics/SVG/1.1/DTD/svg11.dtd">
<svg xmlns="http://www.w3.org/2000/svg" version="1.1" width="512px" height="512px" style="shape-rendering:geometricPrecision; text-rendering:geometricPrecision; image-rendering:optimizeQuality; fill-rule:evenodd; clip-rule:evenodd" xmlns:xlink="http://www.w3.org/1999/xlink">
<g><path style="opacity:0.985" fill="#000000" d="M 235.5,-0.5 C 236.167,-0.5 236.833,-0.5 237.5,-0.5C 237.833,30.5072 237.5,61.5072 236.5,92.5C 210.167,107.667 183.833,122.833 157.5,138C 154.013,139.95 153.679,142.283 156.5,145C 189.433,164.631 222.766,183.464 256.5,201.5C 264.393,198.22 272.06,194.387 279.5,190C 304.833,175.333 330.167,160.667 355.5,146C 359.366,143.421 359.366,140.755 355.5,138C 329.167,122.833 302.833,107.667 276.5,92.5C 275.5,61.5072 275.167,30.5072 275.5,-0.5C 276.167,-0.5 276.833,-0.5 277.5,-0.5C 345.522,39.2662 413.688,78.9329 482,118.5C 482.667,198.5 482.667,278.5 482,358.5C 455.752,343.96 429.586,329.293 403.5,314.5C 402.667,282.505 402.167,250.505 402,218.5C 401.599,216.479 400.432,215.145 398.5,214.5C 365.997,233.586 333.33,252.419 300.5,271C 298.951,272.214 297.785,273.714 297,275.5C 296.333,314.167 296.333,352.833 297,391.5C 299.79,393.831 302.624,393.664 305.5,391C 331.664,376.086 357.664,360.919 383.5,345.5C 410.037,361.2 436.704,376.7 463.5,392C 395.104,431.86 326.77,471.693 258.5,511.5C 256.833,511.5 255.167,511.5 253.5,511.5C 185.409,471.929 117.409,432.096 49.5,392C 75.7491,376.626 101.916,361.126 128,345.5C 154.412,360.288 180.579,375.455 206.5,391C 209.092,393.457 211.592,393.624 214,391.5C 214.667,352.5 214.667,313.5 214,274.5C 213.215,272.714 212.049,271.214 210.5,270C 180.5,252.667 150.5,235.333 120.5,218C 117.702,216.086 114.702,215.086 111.5,215C 110.333,215.5 109.5,216.333 109,217.5C 108.667,249.167 108.333,280.833 108,312.5C 82.0798,328.212 55.9131,343.545 29.5,358.5C 28.3334,278.502 28.1667,198.502 29,118.5C 97.9778,78.9328 166.811,39.2661 235.5,-0.5 Z"/></g>
</svg>
