<?xml version="1.0" standalone="no"?>
<!DOCTYPE svg PUBLIC "-//W3C//DTD SVG 20010904//EN"
 "http://www.w3.org/TR/2001/REC-SVG-20010904/DTD/svg10.dtd">
<svg version="1.0" xmlns="http://www.w3.org/2000/svg"
 width="500.000000pt" height="500.000000pt" viewBox="0 0 500.000000 500.000000"
 preserveAspectRatio="xMidYMid meet">

<g transform="translate(0.000000,500.000000) scale(0.100000,-0.100000)"
fill="#000000" stroke="none">
<path d="M0 2500 l0 -2500 2500 0 2500 0 0 2500 0 2500 -2500 0 -2500 0 0
-2500z m1828 1874 l19 -27 32 19 c28 16 33 17 41 4 9 -15 -1 -27 -39 -50 -13
-7 -12 -12 3 -35 17 -25 17 -28 1 -44 -14 -14 -17 -14 -25 -1 -29 47 -28 46
-61 27 -53 -29 -71 6 -19 37 l30 17 -19 28 c-15 21 -17 31 -9 39 17 17 24 15
46 -14z m-228 -54 c9 -16 8 -22 -5 -26 -22 -9 -20 -16 31 -96 61 -95 60 -94
56 -48 l-4 40 396 0 397 0 -3 -157 -3 -158 -212 -3 -213 -2 0 -275 0 -275 140
0 140 0 -30 -52 c-17 -29 -34 -52 -40 -51 -5 2 -7 -5 -4 -15 4 -9 -3 -3 -15
13 -15 22 -21 25 -21 13 0 -24 -12 -23 -28 3 -22 35 -24 14 -3 -25 29 -51 19
-45 -23 14 -20 28 -41 48 -46 45 -6 -3 -10 -1 -10 5 0 7 -7 10 -14 7 -11 -4
-13 -1 -9 10 4 10 2 14 -5 9 -6 -3 -9 -22 -6 -44 4 -33 3 -35 -6 -12 -6 14 -9
33 -6 42 8 34 -11 27 -23 -9 -12 -32 -11 -38 2 -48 9 -6 18 -31 21 -55 l5 -43
-29 28 c-17 16 -30 24 -30 18 0 -17 64 -67 68 -54 3 8 10 7 23 -5 28 -25 23
-35 -8 -18 -38 19 -46 18 -33 -7 17 -31 2 -38 -20 -9 -11 14 -20 20 -20 14 0
-6 -7 -11 -15 -11 -8 0 -13 3 -10 5 5 5 -25 31 -37 32 -4 0 -4 -8 -1 -17 6
-16 5 -17 -13 -3 -10 8 -24 22 -31 30 -7 8 -13 11 -13 6 0 -5 -7 -3 -16 5 -10
8 -18 9 -22 2 -4 -5 -16 -9 -28 -8 -11 1 -21 -4 -21 -11 0 -7 9 -10 22 -8 14
2 28 -3 36 -14 11 -14 11 -15 -1 -4 -8 6 -18 12 -23 12 -15 0 14 -30 43 -45
15 -8 27 -21 27 -31 0 -15 -1 -15 -12 0 -7 9 -17 16 -22 16 -6 0 -21 10 -35
23 -13 12 -34 23 -47 25 -25 4 -109 62 -110 76 -1 4 14 -3 32 -16 65 -50 84
-53 38 -7 -24 24 -47 44 -51 44 -5 0 -11 3 -15 7 -9 9 16 4 35 -6 8 -5 3 4
-11 20 -14 16 -26 42 -27 57 l-2 28 25 -28 c13 -15 25 -23 25 -16 0 6 -4 15
-10 18 -5 3 -14 14 -19 24 -7 13 -6 18 4 18 7 0 11 -5 9 -11 -4 -12 104 -131
112 -123 3 3 1 13 -5 24 -29 51 -52 106 -39 93 21 -21 70 -110 62 -110 -4 0 3
-11 16 -25 12 -13 27 -22 33 -18 5 3 -1 11 -13 18 -13 7 -24 23 -26 39 -3 29
11 35 21 9 3 -10 19 -34 36 -53 17 -19 28 -27 25 -17 -15 45 -16 50 -1 22 19
-35 61 -69 75 -60 15 9 12 18 -14 46 -24 26 -46 62 -46 76 0 4 11 -5 25 -22
13 -16 24 -25 25 -18 0 7 7 10 15 7 19 -8 19 5 1 25 -8 9 -17 34 -20 56 l-6
40 14 -29 c13 -29 14 -29 21 -7 4 12 4 25 1 28 -3 4 -6 0 -6 -8 -1 -8 -8 0
-17 16 l-17 30 -8 -34 c-6 -23 -5 -43 3 -63 6 -16 9 -31 6 -34 -3 -3 -13 18
-21 47 -17 56 -20 87 -6 54 6 -15 9 -16 9 -4 1 9 -7 23 -17 32 -18 16 -18 15
-14 -16 6 -42 -5 -31 -18 19 -9 37 -9 36 -6 -18 4 -51 3 -56 -15 -53 -23 5
-23 3 0 -45 11 -22 16 -42 12 -45 -16 -9 -52 96 -43 127 5 22 6 22 18 -7 13
-30 13 -29 14 22 0 28 -5 55 -10 58 -7 4 -9 -3 -5 -22 5 -25 4 -26 -7 -10 -35
51 -40 54 -33 22 4 -20 3 -27 -3 -20 -6 6 -12 21 -15 35 -4 22 -4 22 -6 -6 -1
-30 -30 -82 -31 -56 0 7 -4 11 -9 7 -5 -3 -13 0 -17 6 -4 8 -3 9 4 5 7 -4 12
-5 12 -3 0 10 -43 102 -50 107 -4 3 -12 19 -18 35 -6 17 -11 23 -11 15 -1 -8
6 -28 15 -45 15 -28 25 -68 26 -105 1 -8 5 -21 11 -27 5 -7 6 -13 2 -13 -4 0
0 -12 10 -26 9 -14 15 -28 12 -30 -8 -9 -47 48 -48 70 -1 11 -2 35 -3 52 -1
17 -11 48 -22 70 -17 35 -20 68 -24 309 l-5 270 -74 113 c-59 90 -76 110 -87
101 -15 -13 -44 4 -44 25 1 10 96 75 112 76 4 0 12 -9 18 -20z m-115 -205 c37
-58 69 -105 72 -105 2 0 14 5 25 11 16 8 24 8 35 -4 13 -13 9 -18 -32 -47 -39
-27 -49 -30 -59 -19 -21 24 -156 238 -156 248 0 12 32 31 41 25 4 -2 37 -51
74 -109z m1555 -534 c0 -546 -2 -609 -16 -615 -25 -9 -41 -7 -24 4 12 8 10 10
-8 10 -37 0 -91 30 -107 59 -8 15 -14 20 -15 11 0 -12 -4 -11 -15 4 -8 11 -15
17 -15 13 0 -4 -17 3 -37 16 -21 12 -51 29 -68 38 l-30 15 -5 123 -5 124 -18
-72 c-38 -145 -36 -142 -60 -139 -19 3 -24 13 -32 66 -6 38 -14 60 -19 55 -5
-4 -6 -3 -3 4 10 17 -3 43 -22 43 -9 0 -36 -25 -61 -56 -27 -34 -46 -50 -49
-42 -2 7 -13 26 -24 42 l-20 28 144 439 144 439 182 0 183 0 0 -609z m-1645
477 c123 -139 120 -135 94 -148 -17 -10 -25 -8 -45 11 -32 30 -54 13 -35 -28
11 -23 10 -29 -5 -40 -10 -7 -20 -13 -23 -13 -4 0 -34 64 -69 143 l-63 142 22
18 c12 9 24 17 28 17 3 0 47 -46 96 -102z m304 -646 c1 -7 -3 -10 -9 -7 -5 3
-10 18 -9 33 0 24 1 25 9 7 5 -11 9 -26 9 -33z m6 -57 c4 -30 2 -30 -16 -8
-12 14 -12 15 0 9 10 -7 12 -3 6 15 -4 13 -4 21 0 17 4 -4 9 -19 10 -33z m143
-70 l-2 -44 -18 27 c-10 15 -18 34 -18 42 1 9 7 5 16 -10 15 -25 15 -25 8 9
-4 23 -3 31 5 27 6 -4 10 -27 9 -51z m685 25 c-3 -12 -8 -19 -11 -16 -5 6 5
36 12 36 2 0 2 -9 -1 -20z m-205 -54 c-3 -24 -15 -58 -27 -75 -12 -17 -19 -36
-15 -42 5 -8 3 -9 -6 -4 -10 6 -12 3 -8 -13 4 -12 2 -20 -2 -17 -8 5 -15 -23
-23 -84 -4 -28 -27 -23 -27 6 0 66 81 273 107 273 3 0 3 -20 1 -44z m179 23
c-4 -16 -3 -18 9 -8 11 9 15 6 20 -19 3 -17 12 -33 20 -36 8 -3 14 -11 14 -18
0 -9 -3 -8 -10 2 -5 8 -10 10 -10 3 0 -18 -37 -3 -49 20 l-11 22 5 -21 c5 -18
2 -22 -20 -20 -14 0 -25 7 -25 14 0 7 4 11 9 8 5 -4 18 12 28 34 20 43 28 52
20 19z m53 -9 c5 0 7 -7 3 -16 -5 -13 -7 -13 -14 -2 -5 7 -8 22 -8 33 1 17 2
17 6 3 2 -10 8 -18 13 -18z m-128 -60 c10 -24 20 -60 21 -80 2 -32 0 -35 -22
-32 l-25 2 25 -20 24 -21 9 20 c5 12 18 21 30 22 21 0 21 1 1 9 -15 7 -10 9
23 9 27 1 41 5 37 11 -4 6 -23 8 -43 5 -32 -5 -34 -4 -13 5 26 11 91 3 91 -11
0 -5 7 -9 15 -9 17 0 19 -18 5 -54 -7 -19 -17 -26 -37 -27 l-28 -1 30 -9 c25
-7 23 -8 -14 -4 -30 2 -40 1 -30 -6 7 -5 24 -9 37 -9 32 0 27 -20 -5 -21 l-28
-1 30 -8 c28 -7 29 -8 5 -10 -23 -1 -23 -2 -5 -10 21 -8 15 -13 -30 -23 -15
-3 -13 -5 8 -6 38 -1 34 -21 -5 -22 l-33 -1 30 -8 c17 -4 23 -8 15 -9 -12 -1
-13 -3 -1 -10 11 -7 10 -11 -5 -20 -11 -6 -14 -11 -7 -11 7 0 10 -7 7 -15 -5
-12 6 -15 62 -15 l67 0 -21 -22 c-29 -31 -29 -33 -13 -52 8 -9 10 -16 4 -14
-5 2 -33 -28 -62 -67 -29 -38 -36 -52 -17 -30 20 22 36 35 36 28 0 -6 9 -10
20 -8 17 3 19 1 10 -16 -12 -22 -22 -26 -14 -5 6 16 -19 16 -33 1 -4 -4 -2 -5
5 -1 8 5 11 1 9 -13 -2 -11 -6 -24 -10 -27 -11 -12 -8 -24 5 -22 7 2 30 29 51
60 21 32 43 61 49 64 13 8 5 -7 -28 -51 -12 -16 -29 -46 -38 -65 -16 -34 -16
-34 1 -11 10 14 26 34 36 45 18 21 18 21 3 -4 -22 -34 -20 -47 4 -25 11 10 20
24 20 31 0 7 4 16 10 19 6 4 7 -1 4 -12 -3 -10 3 -4 13 12 21 33 53 62 53 49
0 -4 12 3 26 17 14 13 29 23 32 21 4 -2 8 1 10 7 6 19 -11 12 -40 -16 -15 -15
-28 -22 -28 -16 0 6 7 14 16 17 8 3 13 10 10 15 -3 4 4 17 16 27 12 11 18 13
14 7 -12 -22 12 -14 40 12 14 13 31 22 37 18 6 -3 7 -1 3 5 -7 12 28 54 38 45
3 -3 5 3 5 13 1 39 5 53 12 49 4 -3 9 2 12 9 3 8 1 17 -6 19 -7 2 7 5 31 5
l42 1 0 -45 c0 -34 -3 -43 -12 -38 -14 9 10 -26 27 -38 6 -4 7 -8 3 -9 -5 -1
-11 -2 -15 -3 -19 -3 -32 -18 -27 -30 6 -15 -23 -42 -34 -32 -4 4 1 13 10 20
15 11 16 15 4 32 -11 15 -12 22 -3 34 11 13 10 13 -7 0 -18 -14 -19 -13 -13 2
5 15 3 16 -12 6 -10 -6 -24 -20 -31 -32 -13 -21 -13 -21 8 -2 18 15 24 16 37
6 17 -14 21 -35 5 -25 -5 3 -10 2 -10 -3 0 -6 -7 -13 -16 -16 -14 -5 -15 -4
-4 9 7 9 10 18 6 22 -3 3 -6 2 -6 -3 -1 -17 -25 -41 -47 -48 -19 -6 -22 -4
-16 11 4 10 -7 2 -23 -17 -16 -19 -33 -38 -39 -42 -6 -5 -6 -11 2 -16 10 -6 8
-17 -7 -47 -11 -22 -20 -45 -20 -53 0 -7 -4 -11 -9 -7 -12 7 -31 -27 -30 -52
0 -13 4 -10 13 10 7 15 15 25 18 22 3 -3 15 18 28 47 12 29 29 60 36 69 8 9
12 24 8 33 -4 11 0 16 12 18 34 2 39 3 52 12 20 12 25 0 7 -18 -9 -9 -14 -16
-11 -16 4 0 -5 -22 -19 -50 -14 -27 -23 -50 -20 -50 2 0 16 23 31 52 18 35 28
47 34 38 6 -9 10 -7 14 8 6 19 36 39 36 24 0 -4 -9 -36 -20 -70 -11 -35 -20
-71 -19 -80 0 -10 11 21 25 68 26 87 43 120 45 85 0 -19 1 -19 9 0 6 14 9 15
10 5 1 -9 5 -6 10 8 14 34 37 38 68 11 l27 -24 -28 31 c-34 38 -28 62 15 60
18 -1 34 -8 36 -16 5 -13 3 -13 -14 0 -18 14 -18 14 -2 -5 9 -12 16 -36 15
-57 -1 -32 -3 -35 -16 -25 -11 9 -11 6 2 -13 12 -17 17 -45 17 -92 l0 -68 -70
0 -70 0 0 -230 0 -230 -132 0 c-73 0 -150 3 -170 6 l-38 7 0 223 0 224 -55 0
c-45 0 -53 3 -48 15 6 17 -17 17 -29 0 -9 -12 -90 -16 -82 -4 3 5 -5 5 -18 0
-13 -4 -63 -7 -111 -7 -74 2 -91 5 -99 20 -8 14 -12 15 -25 4 -14 -12 -15 -11
-5 9 7 12 17 25 22 28 6 3 10 13 10 22 0 13 -3 13 -15 3 -32 -26 -13 6 37 64
40 47 45 63 8 26 -3 -3 -20 -11 -39 -17 l-34 -12 29 30 29 31 -25 -7 c-16 -4
-7 6 27 31 57 41 65 57 12 25 -18 -11 -36 -18 -41 -15 -4 3 -8 0 -8 -5 0 -6
-4 -11 -10 -11 -5 0 -10 7 -10 15 0 8 5 16 10 16 6 1 14 2 19 3 6 0 16 7 23
15 11 11 9 13 -14 7 -25 -6 -26 -4 -22 21 3 15 11 34 17 42 7 8 11 22 9 31 -1
9 5 23 14 30 14 12 17 12 25 -3 8 -13 14 -14 34 -5 14 6 25 17 25 25 0 7 8 13
17 13 9 0 13 3 10 7 -4 3 -2 12 4 19 7 8 7 14 -1 19 -5 3 -10 1 -10 -4 0 -17
-26 -13 -41 7 -11 14 -11 15 1 5 8 -7 19 -13 25 -13 5 0 -5 14 -24 30 -18 17
-29 30 -24 30 6 0 16 -6 22 -14 13 -16 54 -29 45 -15 -3 5 0 9 6 9 6 0 2 10
-10 22 -11 12 -17 24 -13 27 13 9 14 51 3 72 -10 17 -8 18 17 9 26 -9 27 -9 9
5 -14 11 -16 15 -5 15 12 0 12 2 -1 10 -10 7 -11 10 -2 10 9 0 9 6 -3 23 -18
28 -6 46 13 20 8 -10 23 -38 34 -63z m-446 -67 c10 -14 12 -23 5 -23 -15 0
-81 101 -81 125 0 13 10 4 30 -30 17 -27 37 -60 46 -72z m114 107 c0 -5 -4
-10 -10 -10 -5 0 -10 5 -10 10 0 6 5 10 10 10 6 0 10 -4 10 -10z m34 -30 c-6
-5 -24 21 -24 34 0 6 6 1 14 -10 8 -10 12 -21 10 -24z m-34 -11 c0 -11 -4 -18
-10 -14 -5 3 -7 12 -3 20 7 21 13 19 13 -6z m49 -26 c13 -28 13 -28 -8 -9 -22
20 -27 36 -13 36 5 0 14 -12 21 -27z m-33 -33 c10 0 12 5 8 13 -10 15 21 -8
60 -45 15 -15 24 -28 18 -28 -6 0 -17 8 -24 18 -7 9 -22 24 -32 32 -19 15 -19
15 -1 -18 11 -17 27 -35 37 -38 10 -3 18 -8 19 -12 0 -4 2 -15 4 -24 2 -10 1
-18 -1 -18 -12 0 -62 31 -74 46 -11 12 -6 11 20 -5 19 -11 39 -21 44 -21 10 0
-43 50 -93 87 -21 15 -36 34 -33 41 3 10 8 7 19 -7 8 -12 21 -21 29 -21z m402
33 c-10 -2 -28 -2 -40 0 -13 2 -5 4 17 4 22 1 32 -1 23 -4z m5 -20 c-7 -2 -19
-2 -25 0 -7 3 -2 5 12 5 14 0 19 -2 13 -5z m77 -3 c0 -5 8 -7 18 -3 14 5 15 3
5 -7 -9 -10 -15 -10 -26 -2 -8 7 -16 9 -19 6 -3 -3 -8 -1 -11 3 -3 5 3 10 14
10 10 1 19 -2 19 -7z m-892 -27 c9 -10 29 -25 42 -34 14 -9 22 -20 19 -23 -9
-10 -89 45 -89 61 0 17 7 16 28 -4z m507 7 c3 -5 2 -10 -4 -10 -5 0 -13 5 -16
10 -3 6 -2 10 4 10 5 0 13 -4 16 -10z m-299 -55 c47 -46 83 -63 48 -24 -19 22
-19 22 3 11 26 -14 66 -63 57 -71 -3 -3 -11 1 -17 9 -7 8 -18 16 -25 18 -26 5
-89 51 -105 76 -25 37 -15 32 39 -19z m819 15 c3 -6 -1 -7 -9 -4 -18 7 -21 14
-7 14 6 0 13 -4 16 -10z m-961 -43 c3 3 6 1 6 -6 0 -7 4 -10 9 -7 5 3 20 -3
32 -14 13 -11 18 -19 12 -20 -7 0 -13 5 -13 11 0 5 -5 7 -10 4 -12 -7 -105 41
-123 64 -6 8 9 3 34 -12 26 -14 49 -23 53 -20z m591 23 c10 -11 14 -20 9 -20
-5 0 -17 9 -27 20 -9 11 -13 20 -8 20 4 0 16 -9 26 -20z m-520 -29 c12 -5 27
-17 35 -27 12 -15 8 -14 -20 4 -19 13 -45 28 -57 34 -13 6 -23 16 -23 21 0 5
10 2 23 -7 12 -9 31 -20 42 -25z m900 20 c-6 -11 33 -26 42 -17 4 3 1 6 -6 6
-7 0 -9 5 -6 10 5 8 11 7 21 -1 7 -6 12 -15 9 -19 -3 -5 4 -11 15 -15 11 -3
20 -11 20 -16 0 -5 3 -8 8 -7 11 3 55 -23 49 -29 -3 -3 -23 5 -44 17 -28 15
-45 19 -61 13 -22 -9 -22 -9 -3 -30 20 -21 20 -21 -4 -43 -14 -13 -22 -26 -20
-30 6 -10 -14 -26 -43 -35 l-24 -7 3 99 c3 89 5 99 24 105 11 3 21 6 23 7 2 1
1 -3 -3 -8z m-640 -11 c3 -5 -3 -10 -14 -10 -12 0 -21 5 -21 10 0 6 6 10 14
10 8 0 18 -4 21 -10z m-361 -26 c55 -27 86 -51 86 -66 0 -5 -11 0 -25 11 -15
11 -35 18 -47 16 -11 -3 -28 0 -37 6 -12 8 -11 9 9 4 l25 -6 -21 18 c-12 10
-30 23 -40 30 -34 21 -3 14 50 -13z m324 0 c12 -8 22 -21 22 -27 0 -8 -3 -7
-9 2 -7 10 -10 10 -13 1 -2 -8 -11 -2 -21 14 -20 29 -12 33 21 10z m127 -16
c5 -5 2 -8 -7 -8 -9 0 -26 9 -39 20 l-24 20 30 -12 c17 -6 34 -15 40 -20z
m-163 -52 c12 -21 -14 -32 -39 -16 -15 10 -14 10 10 5 19 -4 26 -2 22 5 -3 5
-13 10 -21 10 -8 0 -13 4 -10 9 4 5 -6 12 -22 15 -15 4 -33 15 -40 26 -10 16
-4 15 39 -9 29 -16 56 -36 61 -45z m116 35 c-6 -2 -14 1 -16 7 -2 6 -9 9 -16
6 -7 -3 -13 2 -13 10 0 13 4 13 29 -2 16 -10 23 -19 16 -21z m-453 19 c3 -5 1
-10 -4 -10 -6 0 -11 5 -11 10 0 6 2 10 4 10 3 0 8 -4 11 -10z m221 -35 c17
-13 16 -14 -16 -3 -43 14 -49 18 -24 18 11 0 29 -7 40 -15z m-183 -7 c12 -7
31 -11 43 -9 27 3 28 -26 2 -35 -11 -3 -22 -3 -25 0 -4 3 1 6 11 6 9 0 15 4
11 10 -3 5 -12 7 -19 4 -7 -3 -24 4 -37 15 -27 23 -19 27 14 9z m143 -16 c-4
-3 -14 2 -24 12 -16 18 -16 18 6 6 13 -6 21 -14 18 -18z m89 17 c11 -17 -1
-21 -15 -4 -8 9 -8 15 -2 15 6 0 14 -5 17 -11z m-249 -24 c16 -8 25 -15 19
-16 -5 0 -19 -2 -31 -3 -13 -2 -20 4 -21 16 -2 22 -2 22 33 3z m1199 5 c3 -6
-1 -7 -9 -4 -18 7 -21 14 -7 14 6 0 13 -4 16 -10z m-965 -15 c14 -8 39 -15 55
-16 l30 -1 -28 -8 c-21 -7 -37 -4 -63 12 -19 11 -34 22 -34 24 0 7 15 3 40
-11z m-82 -1 c12 -4 22 -10 22 -13 0 -10 -59 -1 -66 10 -6 10 11 11 44 3z
m-23 -38 c17 -9 41 -16 55 -15 22 0 23 1 6 8 -19 7 -19 8 1 13 21 6 25 -5 10
-29 -4 -7 0 -16 9 -21 11 -6 13 -11 5 -16 -6 -4 -11 -2 -11 3 0 6 -5 11 -11
11 -5 0 -7 -5 -4 -10 4 -7 -2 -7 -17 -1 -54 22 -66 24 -118 26 -30 2 -41 1
-25 -2 51 -7 63 -14 40 -23 -16 -7 -17 -9 -3 -9 9 -1 22 7 28 17 8 12 13 13
16 5 3 -7 15 -13 27 -13 17 0 19 -2 7 -9 -8 -6 -18 -7 -22 -5 -4 3 -8 1 -8 -5
0 -18 20 -22 35 -7 11 10 26 13 46 9 20 -4 34 -1 39 7 5 8 15 10 26 6 28 -11
4 -25 -51 -31 -28 -3 -59 -6 -69 -7 -11 -2 -54 -20 -95 -40 -62 -31 -77 -35
-79 -22 -5 20 -2 22 28 27 14 2 44 13 68 24 l43 20 -32 7 c-18 3 -34 4 -37 1
-3 -3 3 -5 14 -5 18 0 18 -1 -1 -14 -11 -7 -35 -17 -52 -21 -30 -6 -33 -4 -33
17 0 13 4 18 8 12 4 -6 18 -8 32 -4 24 6 23 7 -10 13 -27 6 -32 10 -20 17 13
9 13 10 0 10 -13 0 -13 1 0 10 10 6 11 10 3 10 -7 0 -13 5 -13 10 0 6 17 11
38 12 l37 1 -37 4 c-21 2 -38 8 -38 13 0 5 7 6 17 3 10 -4 14 -2 10 4 -10 16
104 7 138 -11z m999 15 c7 -10 -18 -34 -27 -25 -7 8 3 34 13 34 5 0 11 -4 14
-9z m40 -26 c-33 -43 -71 -56 -91 -30 -20 28 -16 40 8 19 23 -21 47 -12 64 24
5 12 18 22 28 22 16 0 15 -4 -9 -35z m-914 6 c0 -4 11 -6 25 -3 28 5 35 -13 8
-21 -10 -2 -27 -8 -37 -13 -14 -5 -17 -4 -12 5 4 6 2 18 -4 26 -10 12 -9 15 4
15 9 0 16 -4 16 -9z m50 -51 c-19 -13 -30 -13 -30 0 0 6 10 10 23 10 18 0 19
-2 7 -10z m14 -19 c3 -5 -1 -11 -9 -15 -15 -6 -29 7 -18 18 9 9 21 8 27 -3z
m-54 -42 c-24 -21 -24 -21 14 0 50 28 56 20 14 -19 -22 -22 -25 -27 -8 -16 40
26 46 18 12 -17 -18 -18 -32 -37 -32 -41 0 -5 12 4 27 18 18 18 29 23 32 15 2
-6 -3 -16 -11 -20 -9 -5 -23 -21 -33 -36 l-18 -28 32 29 c35 34 44 16 10 -20
-12 -13 -27 -32 -33 -42 -6 -11 -24 -37 -39 -60 -16 -22 -29 -46 -31 -54 -1
-7 -5 -18 -9 -25 -5 -7 -1 -9 13 -6 11 3 20 12 20 21 0 19 64 135 85 152 21
17 19 13 -15 -50 -54 -99 -70 -135 -69 -160 0 -17 6 -8 18 28 19 54 39 87 27
42 -4 -14 -9 -52 -12 -85 -3 -52 -1 -46 19 45 13 58 29 114 36 125 14 22 14
29 -13 -115 -8 -41 -17 -98 -21 -125 -9 -72 -24 -92 -26 -35 l-1 45 -8 -35
c-26 -111 -33 -130 -41 -124 -5 3 -5 12 0 22 4 9 11 30 15 46 l7 30 -20 -25
-21 -24 5 30 c5 30 5 30 -6 5 -34 -70 -39 -85 -39 -104 -1 -12 -8 -34 -16 -51
-8 -16 -11 -21 -8 -10 4 11 9 41 12 68 2 26 9 50 13 53 5 3 9 11 9 17 0 15
-49 -44 -50 -59 0 -21 -28 -24 -33 -4 -3 12 0 17 8 13 14 -5 35 25 35 49 -1 8
-7 5 -16 -7 -8 -11 -20 -19 -25 -17 -6 1 -17 -14 -25 -34 -17 -40 -30 -36 -37
11 -4 25 -5 24 -4 -7 1 -20 -2 -41 -7 -45 -4 -4 -7 -3 -6 2 1 6 1 26 0 45 -2
34 -2 33 -14 -15 l-13 -50 -1 95 c-1 98 11 159 34 173 8 4 14 17 14 27 0 11 9
34 20 52 11 18 20 38 20 43 0 6 -9 -5 -21 -24 -27 -44 -34 -34 -13 18 16 40
34 54 34 29 1 -7 16 5 35 26 36 41 49 37 17 -5 -45 -59 -110 -205 -97 -217 9
-9 44 64 39 80 -6 19 12 50 64 116 18 23 30 42 26 42 -4 0 1 9 11 20 19 21 7
28 -13 8 -7 -7 -12 -8 -12 -3 0 5 -16 -6 -35 -25 -19 -19 -35 -30 -35 -24 0
13 29 55 55 77 14 13 10 12 -13 -3 -18 -12 -39 -34 -46 -49 -16 -30 -46 -59
-46 -44 0 6 9 22 20 35 10 14 17 28 14 30 -7 8 76 79 85 73 5 -3 11 2 15 10 4
12 -2 11 -32 -5 -50 -26 -72 -45 -72 -60 0 -6 -15 -26 -32 -43 -18 -17 -28
-28 -22 -24 7 4 10 -10 8 -41 -1 -26 3 -50 10 -54 7 -5 3 -15 -12 -30 l-23
-23 6 30 c4 17 9 38 12 49 3 11 1 16 -5 12 -14 -8 -13 85 1 103 6 7 20 17 32
21 16 7 17 9 3 9 -9 1 -20 -3 -23 -9 -9 -15 -25 -12 -25 5 0 17 57 49 62 35 2
-5 17 2 33 16 21 17 23 22 8 15 -34 -17 -38 -13 -14 13 16 17 34 24 61 24 34
1 100 25 100 37 0 3 -19 5 -42 4 -38 -1 -40 -2 -18 -10 23 -8 23 -8 -5 -5 -19
3 -47 -5 -75 -19 -58 -30 -110 -47 -110 -35 0 12 40 33 47 26 4 -3 20 5 37 18
33 25 84 38 158 41 26 1 51 4 54 8 4 4 12 7 18 7 6 0 0 -10 -14 -21z m700 7
c0 -2 -8 -10 -17 -17 -16 -13 -17 -12 -4 4 13 16 21 21 21 13z m49 -8 c-2 -2
-17 -14 -34 -28 l-30 -25 24 28 c14 15 29 27 34 27 6 0 8 -1 6 -2z m-9 -42 c0
-2 -8 -10 -17 -17 -16 -13 -17 -12 -4 4 13 16 21 21 21 13z m-980 -46 c0 -9
-40 -30 -56 -30 -13 0 -1 18 19 28 29 14 37 14 37 2z m530 -4 c0 -10 -32 -36
-43 -36 -7 0 -1 9 13 20 26 21 30 23 30 16z m-230 -323 c-1 -87 -3 -113 -11
-100 -20 33 -14 217 6 217 3 0 5 -53 5 -117z m-33 -100 c-2 -16 -4 -5 -4 22 0
28 2 40 4 28 2 -13 2 -35 0 -50z m-34 -43 c-3 -11 -9 -20 -13 -20 -5 0 -6 9
-3 20 3 11 9 20 13 20 5 0 6 -9 3 -20z m-74 -25 c-6 -19 -7 -40 -3 -47 5 -7 3
-8 -6 -3 -9 6 -10 1 -5 -16 5 -18 4 -20 -4 -9 -10 15 -5 62 11 93 14 28 17 20
7 -18z m95 -3 c-4 -18 -10 -32 -15 -32 -11 0 -11 1 2 39 14 40 21 35 13 -7z
m40 -62 c-8 -7 -24 24 -23 45 0 15 4 13 14 -10 7 -16 11 -32 9 -35z m-86 -15
c-1 -25 -6 -45 -10 -45 -5 0 -7 22 -6 49 2 27 6 47 10 45 4 -3 7 -25 6 -49z
m-165 15 c-3 -11 -7 -20 -9 -20 -2 0 -4 9 -4 20 0 11 4 20 9 20 5 0 7 -9 4
-20z m35 -5 c-1 -13 -8 -27 -14 -29 -9 -3 -9 3 -1 25 14 35 17 37 15 4z m105
10 c-3 -9 -8 -14 -10 -11 -3 3 -2 9 2 15 9 16 15 13 8 -4z m87 -26 c0 -23 -4
-30 -14 -26 -8 3 -17 1 -20 -6 -2 -7 -5 -4 -5 7 -1 13 4 16 15 12 13 -5 15 -1
10 19 -4 14 -2 25 4 25 5 0 10 -14 10 -31z m-290 -15 c0 -8 -9 -14 -20 -14
-22 0 -28 26 -7 33 16 6 27 -1 27 -19z m36 -21 c-12 -12 -29 15 -21 34 7 17 8
16 18 -5 5 -12 7 -25 3 -29z m275 16 c-5 -13 -10 -19 -10 -12 -1 15 10 45 15
40 3 -2 0 -15 -5 -28z m1687 -313 c33 -17 65 -51 85 -92 l16 -31 -51 -28 c-49
-27 -53 -27 -62 -10 -38 63 -73 74 -45 14 10 -21 51 -56 119 -103 129 -89 162
-131 168 -216 3 -45 0 -66 -12 -85 -44 -68 -148 -87 -206 -39 -29 25 -70 91
-70 113 0 6 22 22 49 36 l50 25 23 -42 c29 -52 48 -60 48 -21 0 42 -13 56
-130 136 -124 86 -162 136 -163 217 -1 59 21 96 74 122 41 22 71 23 107 4z
m-2320 -17 c7 -11 19 -19 25 -18 9 0 9 2 0 6 -7 2 -13 9 -13 15 0 6 9 3 20 -7
11 -10 17 -22 14 -26 -3 -5 2 -12 10 -15 17 -7 22 -34 6 -34 -5 0 -14 9 -20
20 -15 29 -68 53 -104 48 -50 -7 -61 -12 -68 -30 -10 -24 -28 -23 -28 1 0 48
129 81 158 40z m-20 -71 c7 -7 12 -21 12 -32 0 -18 -1 -19 -20 -1 -20 18 -27
45 -12 45 4 0 13 -5 20 -12z m-146 -100 c3 -57 11 -135 18 -173 15 -80 10
-112 -23 -151 -46 -54 -104 -6 -79 65 10 27 8 30 -18 40 -28 9 -30 8 -40 -27
-16 -60 -12 -82 24 -118 28 -28 42 -34 76 -34 34 0 48 6 75 33 53 53 62 101
42 221 -21 121 -21 136 -4 136 18 0 52 -204 43 -262 -8 -53 -42 -114 -79 -142
-77 -57 -217 14 -217 109 0 33 15 92 29 115 8 12 17 12 65 -3 l55 -18 -15 -41
c-24 -70 5 -98 32 -32 14 33 14 47 -5 154 -11 64 -18 126 -16 136 2 10 7 36
10 57 11 68 23 39 27 -65z m108 92 c0 -9 -20 -60 -28 -70 -4 -5 -22 21 -22 33
0 4 7 7 16 7 10 0 14 6 11 14 -3 8 -3 17 0 20 10 9 23 7 23 -4z m420 -40 c63
-17 120 -32 126 -35 9 -2 7 -19 -4 -60 l-16 -57 -42 7 -42 6 -15 -53 c-9 -29
-39 -138 -67 -243 -29 -104 -54 -193 -56 -196 -3 -6 -103 18 -112 26 -2 2 26
112 62 245 36 133 66 245 66 250 0 5 -18 14 -39 20 l-39 10 16 60 c12 45 20
59 32 56 8 -3 67 -19 130 -36z m-282 12 c2 -7 -3 -12 -12 -12 -9 0 -16 7 -16
16 0 17 22 14 28 -4z m1846 -16 c18 -7 43 -30 55 -49 28 -46 121 -388 121
-448 0 -132 -164 -189 -234 -81 -28 43 -126 397 -126 455 0 56 25 96 73 118
50 22 67 23 111 5z m-1944 -17 c0 -5 -4 -9 -10 -9 -5 0 -10 7 -10 16 0 8 5 12
10 9 6 -3 10 -10 10 -16z m88 -1 c-2 -6 -10 -13 -16 -14 -7 -1 -8 0 -2 3 5 2
8 9 4 14 -3 5 0 9 6 9 7 0 10 -5 8 -12z m-121 -40 c-3 -8 -6 -5 -6 6 -1 11 2
17 5 13 3 -3 4 -12 1 -19z m91 -10 c19 -19 14 -26 -12 -21 -16 3 -23 10 -19
19 6 17 15 18 31 2z m689 -1 c0 -1 -14 -117 -32 -257 -30 -227 -32 -291 -10
-269 2 3 20 120 38 260 l33 254 58 -2 c32 -1 60 -3 61 -5 7 -8 -67 -523 -79
-553 -29 -68 -126 -96 -192 -56 -20 12 -38 36 -49 64 -16 43 -16 52 14 288 42
325 30 293 99 284 31 -4 58 -8 59 -8z m838 -9 c11 -49 86 -611 82 -615 -5 -4
-111 -22 -114 -19 -4 4 -90 632 -86 636 2 2 25 7 51 11 26 3 50 7 54 8 4 0 10
-9 13 -21z m-349 -39 c69 -33 79 -71 79 -314 0 -175 -2 -204 -18 -233 -23 -43
-80 -68 -173 -77 l-71 -7 -6 122 c-4 68 -7 215 -7 327 l0 203 77 0 c57 0 88
-5 119 -21z"/>
<path d="M1782 3410 c-1 -39 12 -79 19 -64 3 5 0 29 -7 54 -12 45 -12 45 -12
10z"/>
<path d="M1755 3200 c41 -39 70 -58 80 -54 8 3 12 11 9 16 -4 7 -9 6 -13 -1
-4 -6 -25 11 -50 40 -23 27 -46 47 -51 44 -5 -3 -11 -1 -15 5 -3 5 -10 10 -15
10 -5 0 19 -27 55 -60z"/>
<path d="M1740 3174 c8 -8 23 -20 34 -26 19 -10 18 -8 -3 16 -26 27 -53 37
-31 10z"/>
<path d="M1350 4024 c1 -18 27 -56 33 -48 3 5 -3 20 -14 33 -10 13 -19 19 -19
15z"/>
<path d="M2510 3245 c0 -5 5 -17 10 -25 5 -8 10 -10 10 -5 0 6 -5 17 -10 25
-5 8 -10 11 -10 5z"/>
<path d="M2387 3169 c7 -7 15 -10 18 -7 3 3 -2 9 -12 12 -14 6 -15 5 -6 -5z"/>
<path d="M2398 3142 c8 -5 13 -13 12 -18 -1 -5 4 -10 12 -12 11 -3 11 -2 0 6
-8 5 -13 13 -12 18 1 5 -4 10 -12 12 -11 3 -11 2 0 -6z"/>
<path d="M2534 3101 c4 -5 0 -12 -6 -14 -8 -4 -7 -6 4 -6 9 -1 25 -4 35 -7 17
-5 17 -5 0 6 -9 6 -15 15 -12 21 4 5 -1 9 -10 9 -9 0 -14 -4 -11 -9z"/>
<path d="M2578 3098 c5 -5 16 -8 23 -6 8 3 3 7 -10 11 -17 4 -21 3 -13 -5z"/>
<path d="M2505 3050 c-12 -5 1 -6 35 -3 30 3 57 7 59 9 9 8 -75 2 -94 -6z"/>
<path d="M2495 3010 c-4 -6 3 -10 14 -10 25 0 27 6 6 13 -8 4 -17 2 -20 -3z"/>
<path d="M2458 2993 c7 -3 16 -2 19 1 4 3 -2 6 -13 5 -11 0 -14 -3 -6 -6z"/>
<path d="M2508 2973 c7 -3 16 -2 19 1 4 3 -2 6 -13 5 -11 0 -14 -3 -6 -6z"/>
<path d="M2458 2963 c6 -2 18 -2 25 0 6 3 1 5 -13 5 -14 0 -19 -2 -12 -5z"/>
<path d="M2508 2953 c7 -3 16 -2 19 1 4 3 -2 6 -13 5 -11 0 -14 -3 -6 -6z"/>
<path d="M2318 2923 c-10 -2 -18 -11 -18 -18 0 -8 -9 -17 -21 -20 -11 -4 -18
-9 -16 -12 3 -2 18 2 34 11 15 8 24 15 19 16 -6 0 -1 7 10 15 20 15 20 15 -8
8z"/>
<path d="M2455 2920 c-3 -5 -13 -6 -23 -3 -13 4 -14 3 -6 -6 8 -9 19 -8 45 3
27 12 29 15 12 16 -12 0 -24 -4 -28 -10z"/>
<path d="M2360 2890 c-9 -6 -10 -10 -3 -10 6 0 15 5 18 10 8 12 4 12 -15 0z"/>
<path d="M2508 2873 c7 -3 16 -2 19 1 4 3 -2 6 -13 5 -11 0 -14 -3 -6 -6z"/>
<path d="M2265 2855 c-16 -7 -23 -14 -15 -14 8 0 26 6 40 14 32 18 14 18 -25
0z"/>
<path d="M2359 2849 c-23 -19 -23 -20 -2 -10 12 6 25 16 28 21 10 16 -1 12
-26 -11z"/>
<path d="M2299 2833 c-13 -17 -13 -17 6 -3 11 8 22 16 24 17 2 2 0 3 -6 3 -6
0 -17 -8 -24 -17z"/>
<path d="M2415 2840 c-3 -6 1 -7 9 -4 18 7 21 14 7 14 -6 0 -13 -4 -16 -10z"/>
<path d="M2435 2820 c-3 -6 1 -7 9 -4 18 7 21 14 7 14 -6 0 -13 -4 -16 -10z"/>
<path d="M2500 2820 c-8 -5 -10 -10 -5 -10 6 0 17 5 25 10 8 5 11 10 5 10 -5
0 -17 -5 -25 -10z"/>
<path d="M2460 2800 c-9 -6 -10 -10 -3 -10 6 0 15 5 18 10 8 12 4 12 -15 0z"/>
<path d="M2530 2800 c-9 -6 -10 -10 -3 -10 6 0 15 5 18 10 8 12 4 12 -15 0z"/>
<path d="M3110 2797 c0 -2 15 -16 33 -33 l32 -29 -29 33 c-28 30 -36 37 -36
29z"/>
<path d="M2306 2769 c2 -4 -4 -12 -13 -18 -10 -6 -13 -11 -7 -11 6 0 18 8 27
18 14 15 15 19 2 19 -8 0 -12 -4 -9 -8z"/>
<path d="M2396 2749 c2 -4 -4 -10 -15 -14 -11 -3 -25 -12 -31 -20 -7 -8 8 -3
34 11 25 14 46 27 46 28 0 1 -9 2 -19 2 -11 0 -18 -3 -15 -7z"/>
<path d="M3074 2745 c-3 -8 -4 -20 -2 -27 3 -7 7 -1 10 15 6 29 1 36 -8 12z"/>
<path d="M2469 2719 l-24 -20 28 17 c15 9 27 18 27 20 0 8 -8 4 -31 -17z"/>
<path d="M2889 2697 c-7 -15 -16 -27 -22 -27 -5 0 -6 -7 -3 -16 3 -8 2 -13 -3
-10 -9 6 -35 -44 -26 -52 3 -3 5 1 5 9 0 12 2 11 11 -1 9 -13 10 -12 5 3 -3 9
-2 17 3 17 16 0 59 76 51 90 -7 11 -12 7 -21 -13z"/>
<path d="M2355 2690 c-3 -5 -1 -10 4 -10 6 0 11 5 11 10 0 6 -2 10 -4 10 -3 0
-8 -4 -11 -10z"/>
<path d="M3022 2680 c0 -14 2 -19 5 -12 2 6 2 18 0 25 -3 6 -5 1 -5 -13z"/>
<path d="M3063 2655 c0 -22 2 -30 4 -17 2 12 2 30 0 40 -3 9 -5 -1 -4 -23z"/>
<path d="M2389 2663 c-13 -16 -12 -17 4 -4 16 13 21 21 13 21 -2 0 -10 -8 -17
-17z"/>
<path d="M2791 2667 c-8 -10 -7 -14 2 -14 8 0 14 6 14 14 0 7 -1 13 -2 13 -2
0 -8 -6 -14 -13z"/>
<path d="M2926 2619 c-21 -68 -14 -75 8 -8 10 28 15 53 12 56 -2 3 -12 -19
-20 -48z"/>
<path d="M2419 2639 l-24 -20 28 17 c15 9 27 18 27 20 0 8 -8 4 -31 -17z"/>
<path d="M2430 2595 c-24 -25 -42 -45 -39 -45 3 0 25 20 49 45 24 25 42 45 39
45 -3 0 -25 -20 -49 -45z"/>
<path d="M2361 2600 c-14 -12 -18 -20 -10 -20 8 0 20 9 27 20 15 25 13 25 -17
0z"/>
<path d="M2546 2581 l-30 -36 34 32 c19 18 32 34 29 36 -2 2 -17 -12 -33 -32z"/>
<path d="M2262 2593 c-6 -2 -10 -9 -6 -14 8 -14 21 -11 21 6 0 8 -1 15 -1 14
-1 0 -7 -3 -14 -6z"/>
<path d="M2385 2580 c-10 -11 -16 -22 -14 -24 2 -2 12 7 22 20 22 29 17 32 -8
4z"/>
<path d="M2726 2521 c-10 -11 -16 -26 -13 -33 3 -8 6 -5 6 7 1 15 3 17 10 6 7
-11 10 -9 16 8 9 31 2 35 -19 12z"/>
<path d="M2901 2524 c0 -11 3 -14 6 -6 3 7 2 16 -1 19 -3 4 -6 -2 -5 -13z"/>
<path d="M2728 3043 c7 -3 16 -2 19 1 4 3 -2 6 -13 5 -11 0 -14 -3 -6 -6z"/>
<path d="M2728 2893 c7 -3 16 -2 19 1 4 3 -2 6 -13 5 -11 0 -14 -3 -6 -6z"/>
<path d="M1785 2900 c28 -12 37 -12 30 0 -3 6 -16 10 -28 9 -21 0 -21 -1 -2
-9z"/>
<path d="M1865 2870 c27 -12 43 -12 25 0 -8 5 -22 9 -30 9 -10 0 -8 -3 5 -9z"/>
<path d="M1738 2853 c7 -3 16 -2 19 1 4 3 -2 6 -13 5 -11 0 -14 -3 -6 -6z"/>
<path d="M1913 2744 c-15 -13 -32 -24 -37 -24 -5 0 -6 -3 -3 -7 4 -3 0 -17 -8
-29 -13 -21 -13 -23 0 -18 11 5 13 2 8 -12 -4 -12 -3 -15 6 -10 6 4 9 16 6 25
-7 22 19 55 58 74 20 11 24 16 13 20 -8 3 -27 -5 -43 -19z"/>
<path d="M1910 2700 c-14 -10 -22 -21 -19 -24 3 -3 16 5 29 19 28 30 24 32
-10 5z"/>
<path d="M1921 2671 c-23 -21 -31 -37 -29 -58 1 -15 -7 -44 -16 -63 -22 -43
-11 -32 39 40 32 46 34 51 11 30 -24 -21 -26 -22 -20 -5 4 11 15 29 24 40 42
49 37 59 -9 16z"/>
<path d="M1932 2587 c-21 -22 -46 -76 -38 -84 2 -2 18 19 35 48 35 56 36 72 3
36z"/>
<path d="M1825 2524 c-19 -26 -35 -55 -35 -65 0 -9 -3 -26 -6 -36 -5 -15 -4
-16 5 -3 9 12 10 9 5 -12 -4 -18 -2 -28 5 -28 8 0 6 -12 -4 -37 -8 -20 -13
-38 -11 -41 3 -2 12 11 20 29 l14 34 2 -50 c2 -48 3 -48 9 -15 4 19 22 61 39
93 17 31 26 55 21 52 -5 -4 -20 -27 -34 -53 -13 -26 -24 -40 -25 -32 0 8 14
41 30 72 17 31 26 59 21 63 -5 3 -12 1 -16 -5 -4 -6 -11 -7 -17 -4 -6 4 -8 3
-5 -3 4 -6 -5 -21 -20 -34 l-25 -24 7 25 c11 35 35 82 53 103 8 9 12 17 9 17
-3 0 -22 -21 -42 -46z m41 -61 c-25 -46 -56 -80 -56 -63 0 14 56 90 66 90 2 0
-2 -12 -10 -27z"/>
<path d="M1895 2409 c-4 -6 -5 -12 -2 -15 2 -3 7 2 10 11 7 17 1 20 -8 4z"/>
<path d="M1743 2347 l-33 -52 -1 40 c-1 37 -2 36 -9 -14 -10 -66 -3 -93 17
-65 7 10 13 26 13 35 0 10 5 21 11 25 8 4 9 -1 4 -16 -5 -15 -4 -20 4 -16 6 4
11 18 11 32 0 14 5 34 11 45 24 45 2 34 -28 -14z"/>
<path d="M1926 2373 c-4 -16 -9 -37 -13 -48 -3 -13 -2 -17 5 -10 10 10 26 85
19 85 -3 0 -8 -12 -11 -27z"/>
<path d="M1880 2379 c0 -2 -4 -19 -9 -37 -5 -17 -6 -32 -1 -32 8 0 21 62 14
69 -2 2 -4 2 -4 0z"/>
<path d="M1851 2284 c0 -11 3 -14 6 -6 3 7 2 16 -1 19 -3 4 -6 -2 -5 -13z"/>
<path d="M1751 2234 c0 -11 3 -14 6 -6 3 7 2 16 -1 19 -3 4 -6 -2 -5 -13z"/>
<path d="M3623 1755 c-38 -16 -53 -42 -53 -89 0 -76 33 -120 150 -198 98 -66
127 -94 141 -135 9 -28 8 -38 -5 -58 -23 -35 -50 -31 -84 11 -23 28 -35 35
-51 29 -25 -8 -26 -16 -6 -55 30 -58 94 -77 155 -45 36 19 50 43 50 90 0 78
-34 120 -172 215 -86 58 -128 106 -128 145 0 51 70 58 92 10 13 -29 16 -30 42
-10 16 12 18 19 8 40 -12 27 -67 65 -92 65 -8 -1 -29 -7 -47 -15z"/>
<path d="M1630 1624 c-11 -29 -1 -43 30 -44 44 -1 43 -10 -26 -264 -37 -135
-65 -248 -62 -251 2 -2 15 -6 27 -7 23 -3 27 7 82 207 32 116 63 227 69 248
11 36 13 38 43 32 18 -4 36 -8 41 -9 5 0 12 11 16 26 9 29 9 29 -138 68 -24 6
-50 14 -57 17 -10 3 -19 -5 -25 -23z"/>
<path d="M3243 1623 c-33 -6 -73 -59 -73 -96 0 -41 85 -371 108 -416 26 -52
61 -74 105 -66 53 10 87 48 87 98 0 37 -77 346 -101 409 -21 53 -73 82 -126
71z m61 -75 c20 -31 106 -358 106 -402 0 -30 -4 -37 -26 -42 -17 -4 -31 -1
-40 8 -16 16 -114 367 -114 409 0 49 48 67 74 27z"/>
<path d="M3260 1523 c0 -33 93 -368 106 -383 12 -12 14 -11 14 9 0 20 -64 273
-91 359 -11 34 -29 44 -29 15z"/>
<path d="M2035 1546 c-2 -6 -18 -118 -35 -248 -27 -213 -29 -241 -16 -271 17
-43 51 -67 92 -67 36 0 81 32 95 67 9 25 72 493 67 498 -2 2 -15 6 -29 10
l-25 6 -32 -247 c-17 -135 -37 -253 -43 -260 -6 -8 -22 -14 -35 -14 -46 0 -47
23 -14 272 16 128 30 238 30 244 0 15 -51 25 -55 10z"/>
<path d="M2880 1536 c0 -14 65 -476 75 -534 5 -29 10 -33 33 -30 15 2 26 8 26
13 -1 6 -19 135 -40 288 l-38 277 -28 0 c-17 0 -28 -5 -28 -14z"/>
<path d="M2450 1382 c0 -77 3 -208 7 -292 l6 -152 66 4 c129 9 136 24 136 277
0 163 -3 202 -17 234 -21 46 -65 67 -143 67 l-55 0 0 -138z m137 51 c16 -24
18 -52 18 -216 0 -175 -1 -190 -19 -203 -11 -8 -30 -14 -41 -14 -20 0 -23 7
-29 61 -3 34 -6 138 -6 230 l0 169 30 0 c21 0 35 -8 47 -27z"/>
<path d="M2541 1305 c1 -72 4 -164 8 -205 6 -69 7 -73 20 -51 10 18 12 63 10
187 -3 139 -7 166 -21 181 -17 16 -18 11 -17 -112z"/>
</g>
</svg>
